<svg width="15" height="13" viewBox="0 0 15 13" fill="none" xmlns="http://www.w3.org/2000/svg">
<path d="M7.854 12.5611C7.71461 12.4218 7.60404 12.2564 7.52859 12.0744C7.45315 11.8923 7.41432 11.6972 7.41432 11.5001C7.41432 11.3031 7.45315 11.1079 7.52859 10.9259C7.60404 10.7438 7.71461 10.5784 7.854 10.4391L10.293 8.00013L1.5 8.00013C1.10218 8.00013 0.720644 7.84209 0.439339 7.56079C0.158035 7.27948 -3.01519e-07 6.89795 -2.8413e-07 6.50013C-2.6674e-07 6.1023 0.158035 5.72077 0.439339 5.43947C0.720644 5.15816 1.10218 5.00013 1.5 5.00013L10.293 5.00013L7.854 2.56113C7.57261 2.27987 7.41447 1.89834 7.41437 1.50048C7.41428 1.10262 7.57224 0.721022 7.8535 0.439627C8.13476 0.158232 8.51629 9.41822e-05 8.91415 4.31373e-07C9.31201 -9.33194e-05 9.69361 0.157865 9.975 0.439127L13.561 4.02513C13.886 4.35014 14.1439 4.73599 14.3198 5.16065C14.4957 5.58532 14.5863 6.04047 14.5863 6.50013C14.5863 6.95978 14.4957 7.41494 14.3198 7.8396C14.1439 8.26427 13.886 8.65012 13.561 8.97513L9.975 12.5611C9.69371 12.8423 9.31225 13.0003 8.9145 13.0003C8.51675 13.0003 8.13529 12.8423 7.854 12.5611Z" fill="black"/>
</svg>
