<svg width="15" height="13" viewBox="0 0 15 13" fill="none" xmlns="http://www.w3.org/2000/svg">
<path d="M7.146 12.5611C7.28539 12.4218 7.39596 12.2564 7.47141 12.0744C7.54685 11.8923 7.58568 11.6972 7.58568 11.5001C7.58568 11.3031 7.54685 11.1079 7.47141 10.9259C7.39596 10.7438 7.28539 10.5784 7.146 10.4391L4.707 8.00013L13.5 8.00013C13.8978 8.00013 14.2794 7.84209 14.5607 7.56079C14.842 7.27948 15 6.89795 15 6.50013C15 6.1023 14.842 5.72077 14.5607 5.43947C14.2794 5.15816 13.8978 5.00013 13.5 5.00013L4.707 5.00013L7.146 2.56113C7.42739 2.27986 7.58553 1.89834 7.58563 1.50048C7.58572 1.10262 7.42776 0.721021 7.1465 0.439626C6.86524 0.158232 6.48371 9.34377e-05 6.08585 -3.47926e-07C5.68799 -9.41335e-05 5.30639 0.157864 5.025 0.439127L1.439 4.02513C1.11395 4.35014 0.856114 4.73599 0.6802 5.16065C0.504287 5.58532 0.413746 6.04047 0.413746 6.50013C0.413746 6.95978 0.504286 7.41494 0.6802 7.8396C0.856114 8.26426 1.11395 8.65012 1.439 8.97513L5.025 12.5611C5.30629 12.8423 5.68775 13.0003 6.0855 13.0003C6.48324 13.0003 6.86471 12.8423 7.146 12.5611Z" fill="black"/>
</svg>
