<svg width="79" height="79" viewBox="0 0 79 79" fill="none" xmlns="http://www.w3.org/2000/svg">
<path fill-rule="evenodd" clip-rule="evenodd" d="M73.5521 26.2608L76.9437 28.944C78.2411 29.9791 78.9978 31.5476 79.0004 33.2073V73.552C79.0004 76.561 76.5611 79.0003 73.5521 79.0003H5.4483C2.43929 79.0003 0 76.561 0 73.552V33.2073C0.00259214 31.5476 0.759315 29.9791 2.05673 28.944L5.4483 26.2608H73.5521Z" fill="#F29C1F"/>
<path fill-rule="evenodd" clip-rule="evenodd" d="M5.44824 65.0255V2.72411C5.45273 1.22146 6.66975 0.00444199 8.17239 -4.57764e-05H70.8279C72.3305 0.00444199 73.5475 1.22146 73.552 2.72411V63.6089L5.44824 65.0255Z" fill="#ECF0F1"/>
<path d="M39.5002 43.5864C50.0318 43.5864 58.5693 35.0489 58.5693 24.5173C58.5693 13.9858 50.0318 5.44825 39.5002 5.44825C28.9687 5.44825 20.4312 13.9858 20.4312 24.5173C20.4312 35.0489 28.9687 43.5864 39.5002 43.5864Z" fill="#4FBA6F"/>
<path fill-rule="evenodd" clip-rule="evenodd" d="M35.4139 35.4139C34.6912 35.4153 33.9978 35.1279 33.4879 34.6157L28.0396 29.1674C27.0072 28.0985 27.022 26.3995 28.0728 25.3487C29.1236 24.2979 30.8227 24.2831 31.8916 25.3155L35.4139 28.8365L47.1087 17.143C47.7926 16.4349 48.8055 16.1509 49.7579 16.4002C50.7104 16.6495 51.4542 17.3933 51.7035 18.3457C51.9528 19.2982 51.6688 20.311 50.9606 20.995L37.3399 34.6157C36.83 35.1279 36.1366 35.4153 35.4139 35.4139Z" fill="#ECF0F1"/>
<path fill-rule="evenodd" clip-rule="evenodd" d="M79.0008 33.9292L79.0008 73.552C79.0073 75.0984 78.3472 76.5725 77.1892 77.5974L51.5005 57.6294L79.0008 33.9292Z" fill="#F0C419"/>
<path fill-rule="evenodd" clip-rule="evenodd" d="M77.1888 77.5974C76.1921 78.4993 74.8962 78.9992 73.552 79.0003H5.44827C4.1041 78.9992 2.80818 78.4993 1.81152 77.5974L27.5003 57.6294L37.8112 49.6204C38.8033 48.8439 40.197 48.8439 41.1891 49.6204L51.5 57.6294L77.1888 77.5974Z" fill="#F3D55B"/>
<path fill-rule="evenodd" clip-rule="evenodd" d="M27.5004 57.6294L1.81161 77.5974C0.653666 76.5725 -0.00647702 75.0984 4.79178e-05 73.552L0 33.9292L27.5004 57.6294Z" fill="#F0C419"/>
</svg>
