<svg width="95" height="95" viewBox="0 0 95 95" fill="none" xmlns="http://www.w3.org/2000/svg">
<circle cx="47.5" cy="47.5" r="47.5" fill="#FAFAFA"/>
<path d="M37.0203 49.1291C36.5919 49.1291 36.1572 49.0706 35.7253 48.948C34.9021 48.7141 34.4247 47.8581 34.6589 47.036C34.8931 46.214 35.7508 45.7374 36.5735 45.9711C37.4429 46.218 38.3506 45.713 38.5978 44.8453C38.845 43.9776 38.3393 43.0709 37.4704 42.824C34.4228 41.9692 31.6675 39.8547 29.717 36.8715C27.7555 33.8714 26.7188 30.255 26.7188 26.4133V26.4013C26.7241 24.8908 27.316 23.478 28.3854 22.4176C29.4501 21.3619 30.8612 20.7812 32.3606 20.7812C32.3675 20.7812 32.3741 20.7814 32.381 20.7814C35.4922 20.7924 38.0145 23.3289 38.0035 26.4356C38.0005 27.2883 37.3072 27.9776 36.4539 27.9776C36.452 27.9776 36.4502 27.9776 36.4483 27.9776C35.5925 27.9746 34.901 27.2793 34.9041 26.4247C34.909 25.0245 33.7723 23.8813 32.3701 23.8764C31.6891 23.8718 31.0514 24.1358 30.5694 24.6137C30.0873 25.0916 29.8206 25.7284 29.8182 26.4066V26.4133C29.8182 29.6063 30.7039 32.7196 32.3123 35.1795C33.8523 37.535 35.9836 39.1922 38.3136 39.8457C40.8314 40.5612 42.2938 43.1833 41.5787 45.6924C40.9868 47.7703 39.0838 49.1289 37.0203 49.1291Z" fill="#E4624C"/>
<path d="M61.4208 49.1291C59.3568 49.1293 57.4543 47.7705 56.8621 45.6923C56.1471 43.1833 57.6096 40.5611 60.1223 39.8471C62.4573 39.1921 64.5886 37.535 66.1286 35.1795C67.737 32.7195 68.6227 29.6062 68.6227 26.4133V26.4013C68.6204 25.7285 68.3536 25.0918 67.8715 24.6137C67.3917 24.1379 66.7558 23.8764 66.0801 23.8764C66.077 23.8764 66.074 23.8764 66.0709 23.8764C64.6687 23.8813 63.532 25.0245 63.537 26.4247C63.54 27.2793 62.8486 27.9746 61.9927 27.9776C61.9909 27.9776 61.989 27.9776 61.9871 27.9776C61.1338 27.9776 60.4405 27.2884 60.4375 26.4356C60.4266 23.3289 62.9488 20.7924 66.0599 20.7814C66.0667 20.7814 66.0735 20.7812 66.0804 20.7812C67.58 20.7812 68.9908 21.3619 70.0555 22.4176C71.125 23.478 71.7169 24.8908 71.7222 26.3958V26.4133C71.7222 30.255 70.6854 33.8714 68.7239 36.8715C66.7735 39.8547 64.0182 41.9692 60.9655 42.8254C60.1016 43.0709 59.5959 43.9777 59.8431 44.8453C60.0904 45.713 60.9984 46.218 61.8674 45.9712C62.6901 45.7373 63.5478 46.214 63.782 47.0361C64.0162 47.8582 63.5388 48.7142 62.7156 48.9481C62.2842 49.0706 61.8488 49.1291 61.4208 49.1291Z" fill="#CB3B28"/>
<path d="M57.0415 64.4486H41.3885C40.5327 64.4486 39.8388 63.7558 39.8388 62.9011C39.8388 59.512 41.6638 56.4228 44.5659 54.7693V48.2981C43.8959 48.0135 43.2538 47.6679 42.6477 47.2655C39.3333 45.0646 37.3545 41.3777 37.3545 37.4031V22.3288C37.3545 21.4742 38.0484 20.7812 38.9042 20.7812H59.5261C60.3819 20.7812 61.0758 21.4741 61.0758 22.3288V37.4031C61.0758 41.3778 59.097 45.0647 55.7826 47.2655C55.1764 47.6679 54.5343 48.0135 53.8644 48.2981V54.7693C56.7665 56.4228 58.5915 59.512 58.5915 62.9011C58.5913 63.7558 57.8975 64.4486 57.0415 64.4486Z" fill="#FF9377"/>
<path d="M55.7822 47.2655C59.0966 45.0647 61.0754 41.3778 61.0754 37.4031V22.3288C61.0754 21.4742 60.3815 20.7812 59.5257 20.7812H49.2148V64.4485H57.0414C57.8972 64.4485 58.5911 63.7557 58.5911 62.901C58.5911 59.5119 56.7661 56.4227 53.864 54.7691V48.2981C54.534 48.0135 55.1761 47.6679 55.7822 47.2655Z" fill="#E4624C"/>
<path d="M53.352 52.9513H45.0868C44.231 52.9513 43.5371 52.2585 43.5371 51.4038C43.5371 50.549 44.231 49.8562 45.0868 49.8562H53.352C54.2079 49.8562 54.9017 50.549 54.9017 51.4038C54.9017 52.2585 54.2079 52.9513 53.352 52.9513Z" fill="#E4624C"/>
<path d="M53.3494 49.8562H49.2168V52.9512H53.3494C54.2053 52.9512 54.8991 52.2584 54.8991 51.4037C54.8991 50.5489 54.2053 49.8562 53.3494 49.8562Z" fill="#CB3B28"/>
<path d="M63.6389 73.6782H34.787C33.9312 73.6782 33.2373 72.9854 33.2373 72.1307V62.9008C33.2373 62.0462 33.9312 61.3533 34.787 61.3533H63.639C64.4949 61.3533 65.1888 62.0461 65.1888 62.9008V72.1307C65.1887 72.9854 64.4948 73.6782 63.6389 73.6782Z" fill="#BA602B"/>
<path d="M63.6379 61.353H49.2119V73.6779H63.6379C64.4937 73.6779 65.1876 72.985 65.1876 72.1303V62.9005C65.1876 62.0459 64.4937 61.353 63.6379 61.353Z" fill="#964C22"/>
<path d="M65.709 73.6779H32.7245C31.8687 73.6779 31.1748 72.985 31.1748 72.1303C31.1748 71.2756 31.8687 70.5828 32.7245 70.5828H65.7091C66.565 70.5828 67.2589 71.2756 67.2589 72.1303C67.2589 72.985 66.5649 73.6779 65.709 73.6779Z" fill="#964C22"/>
<path d="M65.711 70.5828H49.2188V73.6778H65.711C66.5669 73.6778 67.2607 72.9849 67.2607 72.1302C67.2607 71.2755 66.5669 70.5828 65.711 70.5828Z" fill="#6F3716"/>
</svg>
