<svg width="29" height="29" viewBox="0 0 29 29" fill="none" xmlns="http://www.w3.org/2000/svg">
<path d="M24.7577 4.24235C19.1 -1.41412 9.89906 -1.41412 4.24141 4.24235C-1.4138 9.89881 -1.4138 19.1021 4.24141 24.7586C7.07024 27.5862 10.7852 28.9994 14.5002 28.9994C18.2151 28.9994 21.9288 27.5862 24.7577 24.7586C30.4141 19.1022 30.4141 9.89881 24.7577 4.24235ZM20.483 18.7745C20.9556 19.2472 20.9556 20.0112 20.483 20.4839C20.2472 20.7196 19.9378 20.8381 19.6283 20.8381C19.3188 20.8381 19.0093 20.7196 18.7735 20.4839L14.5001 16.2092L10.2278 20.4827C9.99092 20.7184 9.6814 20.8369 9.37313 20.8369C9.06367 20.8369 8.75416 20.7184 8.51842 20.4827C8.04576 20.01 8.04576 19.2448 8.51842 18.7733L12.7907 14.4998L8.51723 10.2264C8.04457 9.75374 8.04457 8.98851 8.51723 8.51704C8.9887 8.04437 9.75394 8.04437 10.2266 8.51704L14.5 12.7905L18.7735 8.51704C19.2461 8.04437 20.0102 8.04437 20.4829 8.51704C20.9555 8.98851 20.9555 9.75374 20.4829 10.2264L16.2094 14.4998L20.483 18.7745Z" fill="#E0E0E0"/>
</svg>
