<svg width="17" height="17" viewBox="0 0 17 17" fill="none" xmlns="http://www.w3.org/2000/svg">
<path fill-rule="evenodd" clip-rule="evenodd" d="M1.74897 1.74897C1.90839 1.58956 2.1246 1.5 2.35005 1.5H9.55025C9.7757 1.5 9.99191 1.58956 10.1513 1.74897C10.3107 1.90839 10.4003 2.1246 10.4003 2.35005V3.15007C10.4003 3.56428 10.7361 3.90007 11.1503 3.90007C11.5645 3.90007 11.9003 3.56428 11.9003 3.15007V2.35005C11.9003 1.72677 11.6527 1.12903 11.212 0.688312C10.7713 0.247593 10.1735 0 9.55025 0H2.35005C1.72678 0 1.12903 0.247593 0.688312 0.688312C0.247593 1.12903 0 1.72678 0 2.35005V9.55025C0 10.1735 0.247593 10.7713 0.688312 11.212C1.12903 11.6527 1.72677 11.9003 2.35005 11.9003H3.15007C3.56428 11.9003 3.90007 11.5645 3.90007 11.1503C3.90007 10.7361 3.56428 10.4003 3.15007 10.4003H2.35005C2.1246 10.4003 1.90839 10.3107 1.74897 10.1513C1.58956 9.99191 1.5 9.7757 1.5 9.55025V2.35005C1.5 2.1246 1.58956 1.90839 1.74897 1.74897ZM6.5 7.35005C6.5 6.88058 6.88058 6.5 7.35005 6.5H14.5503C15.0197 6.5 15.4003 6.88058 15.4003 7.35005V14.5503C15.4003 15.0197 15.0197 15.4003 14.5503 15.4003H7.35005C6.88058 15.4003 6.5 15.0197 6.5 14.5503V7.35005ZM7.35005 5C6.05215 5 5 6.05215 5 7.35005V14.5503C5 15.8481 6.05215 16.9003 7.35005 16.9003H14.5503C15.8481 16.9003 16.9003 15.8481 16.9003 14.5503V7.35005C16.9003 6.05215 15.8481 5 14.5503 5H7.35005Z" fill="white"/>
</svg>
