<svg width="16" height="16" viewBox="0 0 16 16" fill="none" xmlns="http://www.w3.org/2000/svg">
<path fill-rule="evenodd" clip-rule="evenodd" d="M9.99992 2.66699C8.75736 2.66699 7.71329 3.51684 7.41726 4.66699H1.99992L1.92217 4.67148C1.59061 4.70999 1.33325 4.99177 1.33325 5.33366C1.33325 5.70185 1.63173 6.00033 1.99992 6.00033H7.41726C7.71329 7.15048 8.75736 8.00033 9.99992 8.00033C11.2443 8.00033 12.2896 7.14797 12.5839 5.99524C12.611 5.9986 12.6386 6.00033 12.6666 6.00033H13.9999L14.0777 5.99584C14.4092 5.95733 14.6666 5.67555 14.6666 5.33366C14.6666 4.96547 14.3681 4.66699 13.9999 4.66699H12.6666L12.5888 4.67148L12.5839 4.67207C12.2896 3.51935 11.2443 2.66699 9.99992 2.66699ZM9.99992 6.66699C9.26354 6.66699 8.66659 6.07004 8.66659 5.33366C8.66659 4.59728 9.26354 4.00033 9.99992 4.00033C10.7363 4.00033 11.3333 4.59728 11.3333 5.33366C11.3333 6.07004 10.7363 6.66699 9.99992 6.66699ZM3.41596 11.3286C3.41431 11.3288 3.41266 11.329 3.411 11.3292L3.33325 11.3337H1.99992C1.63173 11.3337 1.33325 11.0352 1.33325 10.667C1.33325 10.3251 1.59061 10.0433 1.92217 10.0048L1.99992 10.0003H3.33325C3.36126 10.0003 3.38886 10.0021 3.41596 10.0054C3.71022 8.85268 4.75553 8.00033 5.99992 8.00033C7.24248 8.00033 8.28655 8.85017 8.58257 10.0003H13.9999C14.3681 10.0003 14.6666 10.2988 14.6666 10.667C14.6666 11.0089 14.4092 11.2907 14.0777 11.3292L13.9999 11.3337H8.58257C8.28655 12.4838 7.24248 13.3337 5.99992 13.3337C4.75553 13.3337 3.71022 12.4813 3.41596 11.3286ZM5.99992 9.33366C6.7363 9.33366 7.33325 9.93061 7.33325 10.667C7.33325 11.4034 6.7363 12.0003 5.99992 12.0003C5.26354 12.0003 4.66658 11.4034 4.66658 10.667C4.66658 9.93061 5.26354 9.33366 5.99992 9.33366Z" fill="white"/>
</svg>
