<svg width="16" height="15" viewBox="0 0 16 15" fill="none" xmlns="http://www.w3.org/2000/svg">
<path d="M7.93066 0C3.78542 0 0.430664 3.35438 0.430664 7.5C0.430664 11.6452 3.78504 15 7.93066 15C12.0759 15 15.4307 11.6456 15.4307 7.5C15.4307 3.35481 12.0763 0 7.93066 0ZM7.93066 13.9535C4.37221 13.9535 1.47718 11.0585 1.47718 7.5C1.47718 3.94151 4.37221 1.04651 7.93066 1.04651C11.4891 1.04651 14.3842 3.94151 14.3842 7.5C14.3842 11.0585 11.4891 13.9535 7.93066 13.9535Z" fill="black"/>
<path d="M7.93497 6.25195C7.49071 6.25195 7.1748 6.43957 7.1748 6.71599V10.4773C7.1748 10.7142 7.49071 10.9511 7.93497 10.9511C8.35948 10.9511 8.70498 10.7142 8.70498 10.4773V6.71593C8.70498 6.43954 8.35948 6.25195 7.93497 6.25195Z" fill="black"/>
<path d="M7.9345 3.93213C7.48037 3.93213 7.125 4.25791 7.125 4.63306C7.125 5.00823 7.4804 5.34389 7.9345 5.34389C8.37876 5.34389 8.73419 5.00823 8.73419 4.63306C8.73419 4.25791 8.37873 3.93213 7.9345 3.93213Z" fill="black"/>
</svg>
