<svg width="26" height="25" viewBox="0 0 26 25" fill="none" xmlns="http://www.w3.org/2000/svg">
<g clip-path="url(#clip0_240_176)">
<path d="M23.3356 10.2679H15.5571C15.3044 10.2679 15.0995 10.068 15.0995 9.82143V2.23214C15.0995 0.999451 14.0751 0 12.8117 0C11.5483 0 10.5239 0.999451 10.5239 2.23214V9.82143C10.5239 10.068 10.319 10.2679 10.0663 10.2679H2.28781C1.02437 10.2679 0 11.2673 0 12.5C0 13.7327 1.02437 14.7321 2.28781 14.7321H10.0663C10.319 14.7321 10.5239 14.932 10.5239 15.1786V22.7679C10.5239 24.0006 11.5483 25 12.8117 25C14.0751 25 15.0995 24.0006 15.0995 22.7679V15.1786C15.0995 14.932 15.3044 14.7321 15.5571 14.7321H23.3356C24.5991 14.7321 25.6234 13.7327 25.6234 12.5C25.6234 11.2673 24.5991 10.2679 23.3356 10.2679Z" fill="#FE3B1F"/>
</g>
<defs>
<clipPath id="clip0_240_176">
<rect width="25.6234" height="25" fill="white"/>
</clipPath>
</defs>
</svg>
