<svg width="20" height="18" viewBox="0 0 20 18" fill="none" xmlns="http://www.w3.org/2000/svg">
<path d="M2.80557 16.9928H12.2883C12.8226 16.9928 13.256 16.5141 13.256 15.9233C13.256 15.3325 12.8226 14.8538 12.2883 14.8538H2.80557C2.32611 14.8538 1.93548 14.4224 1.93548 13.8922V10.6869L6.64252 6.83661L10.2571 10.0855C10.2612 10.0894 10.2653 10.0929 10.2694 10.0967L11.8586 11.5251C12.0382 11.6863 12.2543 11.7647 12.4685 11.7647C12.7501 11.7647 13.0292 11.6296 13.2201 11.3695C13.5572 10.911 13.4942 10.2377 13.0796 9.86517L12.4583 9.30665L15.477 6.83627L17.1522 8.34136V9.83697C17.1522 10.4278 17.5857 10.9065 18.12 10.9065C18.6542 10.9065 19.0877 10.4278 19.0877 9.83697V3.10061C19.0877 1.39085 17.8295 0 16.2828 0H2.80557C1.25882 0 0 1.39086 0 3.10061V13.8922C0 15.602 1.25882 16.9928 2.80557 16.9928ZM1.93548 3.10061C1.93548 2.57038 2.32611 2.13903 2.80557 2.13903H16.2828C16.7622 2.13903 17.1522 2.57038 17.1522 3.10061V5.58457L16.1152 4.65301C15.7718 4.34489 15.2842 4.33306 14.9288 4.62342L10.9083 7.91343L7.28138 4.65336C6.93927 4.34559 6.45036 4.33306 6.09501 4.62342L1.93548 8.0257V3.10061Z" fill="#9EA1A2"/>
<path d="M17.8828 13.5213V12.2516C17.8828 11.6608 17.4494 11.1821 16.9151 11.1821C16.3808 11.1821 15.9474 11.6608 15.9474 12.2516V13.5213H14.7988C14.2645 13.5213 13.8311 14 13.8311 14.5909C13.8311 15.1817 14.2645 15.6604 14.7988 15.6604H15.9474V16.9304C15.9474 17.5212 16.3808 17.9999 16.9151 17.9999C17.4494 17.9999 17.8828 17.5212 17.8828 16.9304V15.6604H19.032C19.5663 15.6604 19.9998 15.1817 19.9998 14.5909C19.9998 14 19.5663 13.5213 19.032 13.5213H17.8828Z" fill="#9EA1A2"/>
</svg>
