<svg width="23" height="23" viewBox="0 0 23 23" fill="none" xmlns="http://www.w3.org/2000/svg">
<g clip-path="url(#clip0_168_324)">
<path d="M11.5 0.479004C5.16062 0.479004 -2.38419e-07 4.69375 -2.38419e-07 9.87355C-2.38419e-07 14.5128 4.09208 18.3998 9.61687 19.1387C9.99158 19.2183 10.5014 19.3879 10.6308 19.708C10.7458 19.9983 10.7065 20.4468 10.6672 20.7497L10.51 21.7329C10.4669 22.0233 10.28 22.8762 11.5153 22.3549C12.7525 21.8355 18.1432 18.4219 20.5582 15.6283C22.2103 13.8075 23 11.9416 23 9.87355C23 4.69375 17.8394 0.479004 11.5 0.479004ZM6.99871 12.9536H4.71212C4.3815 12.9536 4.10837 12.6786 4.10837 12.347V7.74605C4.10837 7.4135 4.3815 7.13846 4.71212 7.13846C5.04562 7.13846 5.31587 7.4135 5.31587 7.74605V11.7394H6.99871C7.33221 11.7394 7.6015 12.0125 7.6015 12.347C7.6015 12.6786 7.33125 12.9536 6.99871 12.9536ZM9.36196 12.347C9.36196 12.6786 9.09171 12.9536 8.75725 12.9536C8.42662 12.9536 8.15637 12.6786 8.15637 12.347V7.74605C8.15637 7.4135 8.42662 7.13846 8.76012 7.13846C9.09171 7.13846 9.36196 7.4135 9.36196 7.74605V12.347ZM14.8637 12.347C14.8637 12.6077 14.697 12.8386 14.4497 12.922C14.3884 12.9421 14.3223 12.9517 14.259 12.9517C14.0568 12.9517 13.8843 12.8645 13.7703 12.7102L11.4291 9.5113V12.346C11.4291 12.6776 11.1617 12.9527 10.8244 12.9527C10.4928 12.9527 10.2245 12.6776 10.2245 12.346V7.74605C10.2245 7.48538 10.3902 7.25442 10.6365 7.172C10.694 7.14996 10.7669 7.14038 10.8225 7.14038C11.0093 7.14038 11.1818 7.241 11.2968 7.38571L13.6562 10.5971V7.74605C13.6562 7.4135 13.9265 7.13846 14.26 7.13846C14.5906 7.13846 14.8637 7.4135 14.8637 7.74605V12.347ZM18.5581 9.43846C18.8926 9.43846 19.1619 9.7135 19.1619 10.047C19.1619 10.3795 18.8926 10.6546 18.5581 10.6546H16.8762V11.7394H18.5581C18.8926 11.7394 19.1619 12.0125 19.1619 12.347C19.1619 12.6786 18.8926 12.9536 18.5581 12.9536H16.2715C15.9409 12.9536 15.6707 12.6786 15.6707 12.347V7.74605C15.6707 7.4135 15.9409 7.13846 16.2744 7.13846H18.561C18.8926 7.13846 19.1619 7.4135 19.1619 7.74605C19.1619 8.08242 18.8926 8.35363 18.5581 8.35363H16.8762V9.43846H18.5581Z" fill="#696969"/>
</g>
<defs>
<clipPath id="clip0_168_324">
<rect width="23" height="23" fill="white"/>
</clipPath>
</defs>
</svg>
