<svg width="29" height="29" viewBox="0 0 29 29" fill="none" xmlns="http://www.w3.org/2000/svg">
<circle cx="14.5" cy="14.5" r="14.5" fill="#EEF5FA"/>
<path d="M16.1371 6.80005H12.9623C12.6131 6.80005 12.3271 7.08598 12.3271 7.43499V9.02261C12.3271 9.37161 12.6131 9.65755 12.9623 9.65755H16.1371C16.4863 9.65755 16.7723 9.37161 16.7723 9.02261V7.43499C16.7723 7.08598 16.4863 6.80005 16.1371 6.80005Z" fill="#1CB722"/>
<path fill-rule="evenodd" clip-rule="evenodd" d="M17.7252 8.07007H19.6302C20.3284 8.07007 20.9001 8.64175 20.9001 9.33994V20.7699C20.9001 21.4683 20.3284 22.04 19.6302 22.04H9.47007C8.77188 22.04 8.2002 21.4683 8.2002 20.7699V9.33994C8.2002 8.64175 8.77188 8.07007 9.47007 8.07007H11.3751V9.33994C11.3751 10.0383 11.9469 10.61 12.6451 10.61H16.4551C17.1533 10.61 17.7252 10.0383 17.7252 9.33994V8.07007ZM13.2336 19.1528C13.3488 19.1528 13.4598 19.1071 13.5411 19.0252L18.6077 13.953C18.8626 13.6982 18.8626 13.2845 18.6077 13.0293L18.3002 12.7214C18.0456 12.4662 17.6324 12.4662 17.3774 12.7214L13.2336 16.8695L11.7 15.3343C11.4451 15.0792 11.0322 15.0792 10.7773 15.3343L10.4697 15.6423C10.2148 15.897 10.2148 16.3108 10.4697 16.566L12.926 19.0252C13.0073 19.1071 13.1183 19.1528 13.2336 19.1528Z" fill="#1CB722"/>
</svg>
