<svg width="24" height="24" viewBox="0 0 24 24" fill="none" xmlns="http://www.w3.org/2000/svg">
<path fill-rule="evenodd" clip-rule="evenodd" d="M6 4.75C5.64183 4.75 5.31354 4.87728 5.08406 5.08126C4.85746 5.28268 4.75 5.53561 4.75 5.77778V18.2222C4.75 18.4644 4.85746 18.7173 5.08406 18.9187C5.31354 19.1227 5.64183 19.25 6 19.25H10C10.4142 19.25 10.75 19.5858 10.75 20C10.75 20.4142 10.4142 20.75 10 20.75H6C5.29731 20.75 4.60818 20.5027 4.08751 20.0399C3.56397 19.5745 3.25 18.923 3.25 18.2222V5.77778C3.25 5.07695 3.56397 4.42552 4.08751 3.96014C4.60818 3.49733 5.29731 3.25 6 3.25H10C10.4142 3.25 10.75 3.58579 10.75 4C10.75 4.41421 10.4142 4.75 10 4.75H6Z" fill="white"/>
<path fill-rule="evenodd" clip-rule="evenodd" d="M15.4697 7.46967C15.7626 7.17678 16.2374 7.17678 16.5303 7.46967L20.5303 11.4697C20.8232 11.7626 20.8232 12.2374 20.5303 12.5303L16.5303 16.5303C16.2374 16.8232 15.7626 16.8232 15.4697 16.5303C15.1768 16.2374 15.1768 15.7626 15.4697 15.4697L18.9393 12L15.4697 8.53033C15.1768 8.23744 15.1768 7.76256 15.4697 7.46967Z" fill="white"/>
<path fill-rule="evenodd" clip-rule="evenodd" d="M9.25 12C9.25 11.5858 9.58579 11.25 10 11.25H20C20.4142 11.25 20.75 11.5858 20.75 12C20.75 12.4142 20.4142 12.75 20 12.75H10C9.58579 12.75 9.25 12.4142 9.25 12Z" fill="white"/>
</svg>
