<svg id="Icons" height="512" viewBox="0 0 60 60" width="512" xmlns="http://www.w3.org/2000/svg"><path d="m39.76 12h13.24a6 6 0 0 1 6 6v28a6 6 0 0 1 -6 6h-14.17a2.006 2.006 0 0 0 -1.42.59l-6 5.82a1.974 1.974 0 0 1 -2.82 0l-6-5.82a2.006 2.006 0 0 0 -1.42-.59h-14.17a6 6 0 0 1 -6-6v-28a6 6 0 0 1 6-6z" fill="#f0c419"/><path d="m48.2 25.238-13.96-21.909a5.024 5.024 0 0 0 -8.48 0l-13.96 21.909a5.046 5.046 0 0 0 4.24 7.762h27.92a5.046 5.046 0 0 0 4.24-7.762z" fill="#e64c3c"/><path d="m33 10c0 1.657-1.343 11-3 11s-3-9.343-3-11a3 3 0 0 1 6 0z" fill="#f0c419"/><circle cx="30" cy="27" fill="#f0c419" r="2"/><g fill="#547580"><path d="m44 38h-28a1 1 0 0 1 0-2h28a1 1 0 0 1 0 2z"/><path d="m26 43h-10a1 1 0 0 1 0-2h10a1 1 0 0 1 0 2z"/><path d="m44 43h-14a1 1 0 0 1 0-2h14a1 1 0 0 1 0 2z"/><path d="m44 48h-28a1 1 0 0 1 0-2h28a1 1 0 0 1 0 2z"/></g></svg>