<svg width="70" height="65" viewBox="0 0 70 65" fill="none" xmlns="http://www.w3.org/2000/svg">
<path d="M65.8428 1L39.1938 20.7183L44.1494 9.09766L65.8428 1Z" fill="#E17726" stroke="#E17726" stroke-width="0.25" stroke-linecap="round" stroke-linejoin="round"/>
<path d="M4.37354 1L30.7852 20.9023L26.067 9.09764L4.37354 1Z" fill="#E27625" stroke="#E27625" stroke-width="0.25" stroke-linecap="round" stroke-linejoin="round"/>
<path d="M56.2472 46.72L49.1567 57.5519L64.3394 61.7322L68.6888 46.9568L56.2472 46.72Z" fill="#E27625" stroke="#E27625" stroke-width="0.25" stroke-linecap="round" stroke-linejoin="round"/>
<path d="M1.55371 46.9568L5.87655 61.7322L21.033 57.5519L13.9687 46.72L1.55371 46.9568Z" fill="#E27625" stroke="#E27625" stroke-width="0.25" stroke-linecap="round" stroke-linejoin="round"/>
<path d="M20.2159 28.4215L15.9985 34.784L31.0231 35.4676L30.5223 19.2986L20.2159 28.4215Z" fill="#E27625" stroke="#E27625" stroke-width="0.25" stroke-linecap="round" stroke-linejoin="round"/>
<path d="M50.0008 28.4217L39.5365 19.1147L39.1938 35.4678L54.2183 34.7842L50.0008 28.4217Z" fill="#E27625" stroke="#E27625" stroke-width="0.25" stroke-linecap="round" stroke-linejoin="round"/>
<path d="M21.0332 57.5518L30.1269 53.1613L22.2985 47.0618L21.0332 57.5518Z" fill="#E27625" stroke="#E27625" stroke-width="0.25" stroke-linecap="round" stroke-linejoin="round"/>
<path d="M40.0908 53.1613L49.1582 57.5518L47.9193 47.0618L40.0908 53.1613Z" fill="#E27625" stroke="#E27625" stroke-width="0.25" stroke-linecap="round" stroke-linejoin="round"/>
<path d="M49.1582 57.5521L40.0908 53.1616L40.8288 59.0508L40.7496 61.5484L49.1582 57.5521Z" fill="#D5BFB2" stroke="#D5BFB2" stroke-width="0.25" stroke-linecap="round" stroke-linejoin="round"/>
<path d="M21.0332 57.5521L29.4681 61.5484L29.4154 59.0508L30.1269 53.1616L21.0332 57.5521Z" fill="#D5BFB2" stroke="#D5BFB2" stroke-width="0.25" stroke-linecap="round" stroke-linejoin="round"/>
<path d="M29.6251 43.1708L22.0864 40.9625L27.4109 38.5173L29.6251 43.1708Z" fill="#233447" stroke="#233447" stroke-width="0.25" stroke-linecap="round" stroke-linejoin="round"/>
<path d="M40.5908 43.1708L42.8051 38.5173L48.1559 40.9625L40.5908 43.1708Z" fill="#233447" stroke="#233447" stroke-width="0.25" stroke-linecap="round" stroke-linejoin="round"/>
<path d="M21.0324 57.5519L22.3504 46.72L13.9683 46.9568L21.0324 57.5519Z" fill="#CC6228" stroke="#CC6228" stroke-width="0.25" stroke-linecap="round" stroke-linejoin="round"/>
<path d="M47.8657 46.72L49.1574 57.5519L56.2479 46.9568L47.8657 46.72Z" fill="#CC6228" stroke="#CC6228" stroke-width="0.25" stroke-linecap="round" stroke-linejoin="round"/>
<path d="M54.2183 34.7839L39.1938 35.4675L40.5908 43.171L42.805 38.5173L48.1559 40.9624L54.2183 34.7839Z" fill="#CC6228" stroke="#CC6228" stroke-width="0.25" stroke-linecap="round" stroke-linejoin="round"/>
<path d="M22.0874 40.9624L27.4119 38.5173L29.6261 43.171L31.0231 35.4675L15.9985 34.7839L22.0874 40.9624Z" fill="#CC6228" stroke="#CC6228" stroke-width="0.25" stroke-linecap="round" stroke-linejoin="round"/>
<path d="M15.9985 34.7839L22.2984 47.0619L22.0873 40.9624L15.9985 34.7839Z" fill="#E27525" stroke="#E27525" stroke-width="0.25" stroke-linecap="round" stroke-linejoin="round"/>
<path d="M48.1566 40.9624L47.9194 47.0619L54.2192 34.7839L48.1566 40.9624Z" fill="#E27525" stroke="#E27525" stroke-width="0.25" stroke-linecap="round" stroke-linejoin="round"/>
<path d="M31.0231 35.4675L29.626 43.171L31.392 52.2675L31.7875 40.2789L31.0231 35.4675Z" fill="#E27525" stroke="#E27525" stroke-width="0.25" stroke-linecap="round" stroke-linejoin="round"/>
<path d="M39.1942 35.4675L38.4561 40.2527L38.8251 52.2675L40.5912 43.171L39.1942 35.4675Z" fill="#E27525" stroke="#E27525" stroke-width="0.25" stroke-linecap="round" stroke-linejoin="round"/>
<path d="M40.5907 43.171L38.8247 52.2675L40.09 53.1615L47.9186 47.0619L48.1558 40.9624L40.5907 43.171Z" fill="#F5841F" stroke="#F5841F" stroke-width="0.25" stroke-linecap="round" stroke-linejoin="round"/>
<path d="M22.0864 40.9624L22.2974 47.0619L30.1259 53.1615L31.3912 52.2675L29.6251 43.171L22.0864 40.9624Z" fill="#F5841F" stroke="#F5841F" stroke-width="0.25" stroke-linecap="round" stroke-linejoin="round"/>
<path d="M40.7497 61.5483L40.8286 59.0506L40.1434 58.4721H30.0744L29.4154 59.0506L29.4681 61.5483L21.0332 57.552L23.9854 59.9708L29.9689 64.0985H40.2223L46.2322 59.9708L49.158 57.552L40.7497 61.5483Z" fill="#C0AC9D" stroke="#C0AC9D" stroke-width="0.25" stroke-linecap="round" stroke-linejoin="round"/>
<path d="M40.0899 53.1613L38.8246 52.2676H31.3914L30.1263 53.1613L29.4146 59.0507L30.0736 58.4722H40.1426L40.828 59.0507L40.0899 53.1613Z" fill="#161616" stroke="#161616" stroke-width="0.25" stroke-linecap="round" stroke-linejoin="round"/>
<path d="M66.9767 22.0065L69.2173 11.1221L65.8433 1L40.0908 20.0611L50.0016 28.4215L63.9982 32.4968L67.0822 28.8949L65.738 27.922L67.8729 25.9766L66.2388 24.7146L68.3739 23.0845L66.9767 22.0065Z" fill="#763E1A" stroke="#763E1A" stroke-width="0.25" stroke-linecap="round" stroke-linejoin="round"/>
<path d="M1 11.1221L3.26686 22.0065L1.81713 23.0845L3.97855 24.7146L2.3443 25.9766L4.47937 27.922L3.13506 28.8949L6.21906 32.4968L20.2157 28.4215L30.1265 20.0611L4.37394 1L1 11.1221Z" fill="#763E1A" stroke="#763E1A" stroke-width="0.25" stroke-linecap="round" stroke-linejoin="round"/>
<path d="M63.9983 32.4966L50.0018 28.4216L54.2192 34.7841L47.9194 47.0619L56.2488 46.9568H68.6902L63.9983 32.4966Z" fill="#F5841F" stroke="#F5841F" stroke-width="0.25" stroke-linecap="round" stroke-linejoin="round"/>
<path d="M20.2157 28.4216L6.21922 32.4966L1.55371 46.9568H13.9687L22.298 47.0619L15.9984 34.7841L20.2157 28.4216Z" fill="#F5841F" stroke="#F5841F" stroke-width="0.25" stroke-linecap="round" stroke-linejoin="round"/>
<path d="M39.1936 35.4676L40.0898 20.0609L44.149 9.09766H26.0669L30.1261 20.0609L31.0223 35.4676L31.365 40.3051L31.3914 52.2676H38.8246L38.8509 40.3051L39.1936 35.4676Z" fill="#F5841F" stroke="#F5841F" stroke-width="0.25" stroke-linecap="round" stroke-linejoin="round"/>
</svg>
