<svg width="29" height="29" viewBox="0 0 29 29" fill="none" xmlns="http://www.w3.org/2000/svg">
<circle cx="14.5" cy="14.5" r="14.5" fill="#EEF5FA"/>
<path d="M16.1371 6.7999H12.9623C12.6131 6.7999 12.3271 7.08583 12.3271 7.43483V9.02246C12.3271 9.37146 12.6131 9.65739 12.9623 9.65739H16.1371C16.4863 9.65739 16.7723 9.37146 16.7723 9.02246V7.43483C16.7723 7.08583 16.4863 6.7999 16.1371 6.7999Z" fill="#1CB722"/>
<path fill-rule="evenodd" clip-rule="evenodd" d="M17.7252 8.0701H19.6302C20.3284 8.0701 20.9001 8.64178 20.9001 9.33997V20.77C20.9001 21.4683 20.3284 22.04 19.6302 22.04H9.47007C8.77188 22.04 8.2002 21.4683 8.2002 20.77V9.33997C8.2002 8.64178 8.77188 8.0701 9.47007 8.0701H11.3751V9.33997C11.3751 10.0383 11.9469 10.61 12.6451 10.61H16.4551C17.1533 10.61 17.7252 10.0383 17.7252 9.33997V8.0701ZM13.2336 19.1528C13.3488 19.1528 13.4598 19.1072 13.5411 19.0253L18.6077 13.953C18.8626 13.6982 18.8626 13.2845 18.6077 13.0293L18.3002 12.7214C18.0456 12.4662 17.6324 12.4662 17.3774 12.7214L13.2336 16.8696L11.7 15.3344C11.4451 15.0792 11.0322 15.0792 10.7773 15.3344L10.4697 15.6423C10.2148 15.897 10.2148 16.3108 10.4697 16.566L12.926 19.0253C13.0073 19.1072 13.1183 19.1528 13.2336 19.1528Z" fill="#1CB722"/>
</svg>
