<svg width="69" height="69" viewBox="0 0 69 69" fill="none" xmlns="http://www.w3.org/2000/svg">
<g clip-path="url(#clip0_172_121)">
<path d="M35.2188 5.75H32.0562C31.1075 2.44375 28.06 0 24.4375 0C20.815 0 17.7675 2.44375 16.8187 5.75H13.6562C12.4775 5.75 11.5 6.7275 11.5 7.90625V12.2188C11.5 14.9787 13.7713 17.25 16.5312 17.25H32.3438C35.1037 17.25 37.375 14.9787 37.375 12.2188V7.90625C37.375 6.7275 36.3975 5.75 35.2188 5.75Z" fill="#002169"/>
<path d="M40.9688 8.625H40.25V12.2188C40.25 16.5887 36.7137 20.125 32.3438 20.125H16.5312C12.1613 20.125 8.625 16.5887 8.625 12.2188V8.625H7.90625C3.53625 8.625 0 12.1613 0 16.5312V52.4688C0 56.8387 3.53625 60.375 7.90625 60.375H29.1238L29.7563 56.8388C30.0438 55.2288 30.7912 53.7912 31.9412 52.6125L34.2412 50.3125H10.7812C9.6025 50.3125 8.625 49.335 8.625 48.1562C8.625 46.9775 9.6025 46 10.7812 46H38.0938C38.2375 46 38.3525 46 38.4963 46.0575H38.525L48.875 35.7075V16.5312C48.875 12.1613 45.3387 8.625 40.9688 8.625ZM38.0938 40.9688H10.7812C9.6025 40.9688 8.625 39.9912 8.625 38.8125C8.625 37.6338 9.6025 36.6562 10.7812 36.6562H38.0938C39.2725 36.6562 40.25 37.6338 40.25 38.8125C40.25 39.9912 39.2725 40.9688 38.0938 40.9688ZM38.0938 31.625H10.7812C9.6025 31.625 8.625 30.6475 8.625 29.4688C8.625 28.29 9.6025 27.3125 10.7812 27.3125H38.0938C39.2725 27.3125 40.25 28.29 40.25 29.4688C40.25 30.6475 39.2725 31.625 38.0938 31.625Z" fill="#002169"/>
<path d="M36.0152 69C35.4489 69 34.8969 68.7758 34.4915 68.3675C33.9941 67.8701 33.7699 67.1629 33.8935 66.4671L35.4172 57.8278C35.492 57.3936 35.7047 56.9911 36.0152 56.6778L57.3621 35.3338C59.9841 32.706 62.5601 33.4161 63.9689 34.8249L67.5252 38.3813C69.4889 40.342 69.4889 43.5333 67.5252 45.4969L46.1784 66.8438C45.8679 67.1571 45.4654 67.367 45.0284 67.4418L36.389 68.9655C36.2654 68.9885 36.1389 69 36.0152 69V69ZM44.6546 65.32H44.6834H44.6546Z" fill="#FE3B1F"/>
</g>
<defs>
<clipPath id="clip0_172_121">
<rect width="69" height="69" fill="white"/>
</clipPath>
</defs>
</svg>
