<svg width="20" height="17" viewBox="0 0 20 17" fill="none" xmlns="http://www.w3.org/2000/svg">
<path d="M12.4627 12.8275H2.13456C2.02651 12.8275 1.93547 12.7362 1.93547 12.6284V4.46822C1.93547 4.36048 2.02651 4.26912 2.13456 4.26912H4.91207C5.70655 4.26912 6.45377 3.80857 6.81856 3.09096L7.33897 2.05014C7.37362 1.98147 7.44544 1.93547 7.51727 1.93547H10.739C10.8158 1.93547 10.8889 1.98021 10.9192 2.03943L11.4408 3.09726C11.8088 3.81991 12.5409 4.26912 13.3511 4.26912H16.1283C16.2348 4.26912 16.3211 4.35859 16.3211 4.46822V8.96226C16.3211 9.49653 16.7545 9.93 17.2888 9.93C17.8231 9.93 18.2565 9.49653 18.2565 8.96226V4.46822C18.2565 3.29131 17.302 2.33365 16.1283 2.33365H13.3511C13.2742 2.33365 13.2011 2.28892 13.1709 2.2297L12.6492 1.17187C12.2813 0.449217 11.5492 0 10.739 0H7.51727C6.72343 0 5.9762 0.459923 5.61079 1.17817L5.09006 2.21962C5.05541 2.28766 4.9839 2.33365 4.91207 2.33365H2.13456C0.957653 2.33365 0 3.2913 0 4.46822V12.6284C0 13.8053 0.957653 14.763 2.13456 14.763H12.4627C12.997 14.763 13.4305 14.3295 13.4305 13.7953C13.4305 13.261 12.997 12.8275 12.4627 12.8275Z" fill="#9EA1A2"/>
<path d="M5.24707 8.25791C5.24707 10.3988 6.98881 12.1408 9.12998 12.1408C11.2708 12.1408 13.0129 10.3988 13.0129 8.25791C13.0129 6.11705 11.2708 4.375 9.12998 4.375C6.98881 4.375 5.24707 6.11705 5.24707 8.25791ZM11.0774 8.25791C11.0774 9.33149 10.2039 10.2054 9.12998 10.2054C8.05609 10.2054 7.18254 9.33149 7.18254 8.25791C7.18254 7.18433 8.05609 6.31047 9.12998 6.31047C10.2039 6.31047 11.0774 7.18433 11.0774 8.25791Z" fill="#9EA1A2"/>
<path d="M19.033 12.8261H18.2606V12.0537C18.2606 11.5194 17.8271 11.0859 17.2928 11.0859C16.7586 11.0859 16.3251 11.5194 16.3251 12.0537V12.8261H15.5527C15.0184 12.8261 14.585 13.2596 14.585 13.7938C14.585 14.3281 15.0184 14.7616 15.5527 14.7616H16.3251V15.534C16.3251 16.0683 16.7586 16.5017 17.2928 16.5017C17.8271 16.5017 18.2606 16.0683 18.2606 15.534V14.7616H19.033C19.5673 14.7616 20.0007 14.3281 20.0007 13.7938C20.0007 13.2596 19.5673 12.8261 19.033 12.8261Z" fill="#9EA1A2"/>
</svg>
