<svg width="16" height="19" viewBox="0 0 16 19" fill="none" xmlns="http://www.w3.org/2000/svg">
<path d="M3.66247 10.1066C3.51018 10.1066 3.35562 10.0858 3.20208 10.0421C2.9094 9.95869 2.73966 9.65352 2.82294 9.36043C2.90621 9.06734 3.21115 8.89742 3.50365 8.98074C3.81274 9.06878 4.13543 8.88873 4.22333 8.5794C4.31123 8.27003 4.13143 7.94677 3.82251 7.85874C2.739 7.55397 1.75941 6.80013 1.06595 5.73654C0.368602 4.66695 0 3.37761 0 2.00794V2.00366C0.00191004 1.46515 0.212346 0.961444 0.592555 0.583378C0.971037 0.207008 1.47272 0 2.0058 0C2.00826 0 2.01062 3.68341e-05 2.01308 3.68341e-05C3.11921 0.00397808 4.01594 0.908292 4.01205 2.01589C4.01098 2.31992 3.76448 2.56568 3.46111 2.56568C3.46045 2.56568 3.45979 2.56568 3.45913 2.56568C3.15484 2.56461 2.90903 2.31672 2.9101 2.01203C2.91186 1.51281 2.5077 1.10524 2.00918 1.10348C1.76708 1.10186 1.54034 1.19597 1.36899 1.36636C1.19763 1.53676 1.10279 1.76376 1.10191 2.00558V2.00794C1.10191 3.14633 1.41681 4.25629 1.98865 5.13331C2.53617 5.97309 3.29391 6.56391 4.12228 6.79692C5.01743 7.052 5.53737 7.98685 5.28318 8.8814C5.07271 9.62221 4.39611 10.1066 3.66247 10.1066Z" fill="#C4CAF3"/>
<path d="M12.3376 10.1066C11.6038 10.1067 10.9274 9.62228 10.7168 8.88136C10.4626 7.98685 10.9826 7.05196 11.876 6.7974C12.7061 6.56387 13.4639 5.97309 14.0114 5.13331C14.5832 4.25625 14.8981 3.14629 14.8981 2.00794V2.00366C14.8973 1.7638 14.8024 1.53679 14.6311 1.36636C14.4605 1.19674 14.2344 1.10348 13.9942 1.10348C13.9931 1.10348 13.992 1.10348 13.9909 1.10348C13.4924 1.10524 13.0882 1.51281 13.09 2.01203C13.0911 2.31672 12.8453 2.56461 12.541 2.56568C12.5403 2.56568 12.5397 2.56568 12.539 2.56568C12.2356 2.56568 11.9891 2.31996 11.9881 2.01589C11.9842 0.908292 12.8809 0.00397808 13.987 3.68341e-05C13.9894 3.68341e-05 13.9918 0 13.9943 0C14.5274 0 15.029 0.207008 15.4076 0.583378C15.7878 0.961444 15.9982 1.46515 16.0001 2.00171V2.00794C16.0001 3.37761 15.6315 4.66695 14.9342 5.73654C14.2407 6.80013 13.2611 7.55397 12.1758 7.85925C11.8687 7.94677 11.6889 8.27006 11.7768 8.5794C11.8647 8.88873 12.1875 9.06878 12.4965 8.98078C12.789 8.89739 13.0939 9.06734 13.1772 9.36046C13.2604 9.65355 13.0907 9.95872 12.798 10.0421C12.6445 10.0858 12.4897 10.1066 12.3376 10.1066Z" fill="#A8B1EC"/>
<path d="M10.7826 15.5684H5.21743C4.91314 15.5684 4.66645 15.3214 4.66645 15.0167C4.66645 13.8084 5.31528 12.707 6.34707 12.1175V9.81039C6.10887 9.70892 5.88058 9.58571 5.66511 9.44224C4.48669 8.65756 3.7832 7.3431 3.7832 5.92605V0.551738C3.7832 0.247046 4.02989 0 4.33418 0H11.6659C11.9702 0 12.2169 0.247009 12.2169 0.551738V5.92605C12.2169 7.34314 11.5133 8.6576 10.3349 9.44224C10.1194 9.58571 9.89119 9.70892 9.65299 9.81039V12.1175C10.6848 12.707 11.3336 13.8084 11.3336 15.0167C11.3335 15.3214 11.0869 15.5684 10.7826 15.5684Z" fill="#E0E4F8"/>
<path d="M10.3349 9.44224C11.5133 8.6576 12.2168 7.34314 12.2168 5.92605V0.551738C12.2168 0.247046 11.9701 0 11.6658 0H8V15.5684H10.7826C11.0869 15.5684 11.3335 15.3214 11.3335 15.0166C11.3335 13.8084 10.6847 12.707 9.65292 12.1175V9.81039C9.89113 9.70892 10.1194 9.58571 10.3349 9.44224Z" fill="#C4CAF3"/>
<path d="M9.469 11.469H6.53047C6.22618 11.469 5.97949 11.2219 5.97949 10.9172C5.97949 10.6125 6.22618 10.3655 6.53047 10.3655H9.469C9.77328 10.3655 10.02 10.6125 10.02 10.9172C10.02 11.2219 9.77328 11.469 9.469 11.469Z" fill="#C4CAF3"/>
<path d="M9.46829 10.3655H7.99902V11.4689H9.46829C9.77257 11.4689 10.0193 11.2219 10.0193 10.9172C10.0193 10.6125 9.77257 10.3655 9.46829 10.3655Z" fill="#A8B1EC"/>
<path d="M13.129 18.859H2.87129C2.567 18.859 2.32031 18.612 2.32031 18.3072V15.0166C2.32031 14.7119 2.567 14.4648 2.87129 14.4648H13.1291C13.4334 14.4648 13.68 14.7119 13.68 15.0166V18.3072C13.68 18.612 13.4333 18.859 13.129 18.859Z" fill="#BA602B"/>
<path d="M13.1289 14.4648H8V18.8589H13.1289C13.4332 18.8589 13.6798 18.6119 13.6798 18.3072V15.0165C13.6798 14.7119 13.4332 14.4648 13.1289 14.4648Z" fill="#964C22"/>
<path d="M13.8639 18.8591H2.13691C1.83263 18.8591 1.58594 18.6121 1.58594 18.3074C1.58594 18.0026 1.83263 17.7556 2.13691 17.7556H13.864C14.1682 17.7556 14.4149 18.0026 14.4149 18.3074C14.4149 18.6121 14.1682 18.8591 13.8639 18.8591Z" fill="#964C22"/>
<path d="M13.8645 17.7556H8.00098V18.8591H13.8645C14.1688 18.8591 14.4155 18.612 14.4155 18.3073C14.4155 18.0026 14.1688 17.7556 13.8645 17.7556Z" fill="#6F3716"/>
</svg>
