<svg width="89" height="89" viewBox="0 0 89 89" fill="none" xmlns="http://www.w3.org/2000/svg">
<g clip-path="url(#clip0_258_414)">
<path d="M79.2664 83.7848H9.73438V78.2223C9.73438 74.3823 12.8475 71.269 16.6876 71.269H72.3131C76.1531 71.269 79.2664 74.3821 79.2664 78.2223V83.7848Z" fill="#FFD44A"/>
<path d="M66.7505 59.1011H22.25C20.3299 59.1011 18.7734 60.6575 18.7734 62.5776V71.2692H70.2271V62.5776C70.2271 60.6577 68.6706 59.1011 66.7505 59.1011Z" fill="#FFE89C"/>
<path d="M49.3677 5.21387H37.6172L26.1439 16.6872C25.4651 17.366 25.4651 18.4666 26.1439 19.1454L30.5688 23.5704C31.2476 24.2492 32.3483 24.2492 33.0271 23.5704L39.6332 16.9643V49.3667H33.5411C31.621 49.3667 30.0645 50.9232 30.0645 52.8433V59.1011H58.9364V52.8433C58.9364 50.9232 57.38 49.3667 55.4599 49.3667H49.3677V5.21387Z" fill="#FFD44A"/>
<path d="M63.5419 45.8153C63.2574 49.0112 64.5491 51.9834 66.7743 53.9651C69.3144 52.4079 71.1109 49.7105 71.3955 46.5145C71.68 43.3187 70.3883 40.3464 68.1631 38.3647C65.623 39.9221 63.8265 42.6195 63.5419 45.8153Z" fill="#BDF485"/>
<path d="M74.3348 48.9723C71.2208 49.745 68.8317 51.935 67.6836 54.6845C69.9837 56.5783 73.1194 57.3976 76.2335 56.6249C79.3476 55.8522 81.7365 53.6622 82.8846 50.9128C80.5845 49.0189 77.4489 48.1995 74.3348 48.9723Z" fill="#BDF485"/>
<path d="M69.4158 37.0049C70.0172 40.1564 72.0736 42.6614 74.7563 43.958C76.773 41.7646 77.7621 38.6785 77.1607 35.5268C76.5592 32.3753 74.5028 29.8703 71.8202 28.5737C69.8036 30.7669 68.8143 33.8532 69.4158 37.0049Z" fill="#BDF485"/>
<path d="M78.748 38.9416C76.3429 41.065 75.2355 44.111 75.4872 47.08C78.4019 47.6974 81.5616 46.9757 83.9668 44.8522C86.3719 42.7287 87.4793 39.6828 87.2276 36.7138C84.3125 36.0962 81.1531 36.8181 78.748 38.9416Z" fill="#BDF485"/>
<path d="M78.2069 29.5771C76.7009 32.41 76.7337 35.6508 78.0119 38.3424C80.9579 37.8969 83.6627 36.1115 85.1691 33.2784C86.6751 30.4456 86.6423 27.2047 85.3641 24.5132C82.4179 24.9589 79.713 26.7443 78.2069 29.5771Z" fill="#BDF485"/>
<path d="M25.4589 45.8153C25.7435 49.0112 24.4518 51.9834 22.2266 53.9651C19.6865 52.4079 17.89 49.7105 17.6054 46.5145C17.3209 43.3185 18.6126 40.3464 20.8377 38.3647C23.3777 39.9221 25.1744 42.6195 25.4589 45.8153Z" fill="#BDF485"/>
<path d="M14.6661 48.9723C17.78 49.745 20.1691 51.935 21.3172 54.6845C19.0172 56.5783 15.8815 57.3976 12.7674 56.6249C9.65325 55.8522 7.26434 53.6622 6.11621 50.9128C8.4163 49.0189 11.5521 48.1995 14.6661 48.9723Z" fill="#BDF485"/>
<path d="M19.5855 37.0049C18.984 40.1564 16.9277 42.6614 14.245 43.958C12.2282 41.7646 11.2392 38.6785 11.8406 35.5268C12.442 32.3752 14.4984 29.8703 17.1811 28.5737C19.1977 30.7669 20.1869 33.8532 19.5855 37.0049Z" fill="#BDF485"/>
<path d="M10.2528 38.9416C12.6578 41.065 13.7653 44.111 13.5136 47.08C10.5989 47.6974 7.4392 46.9757 5.03395 44.8522C2.62904 42.7287 1.52159 39.6829 1.77329 36.7138C4.6882 36.0962 7.84786 36.8181 10.2528 38.9416Z" fill="#BDF485"/>
<path d="M10.7942 29.5771C12.3002 32.41 12.2674 35.6508 10.9892 38.3424C8.0432 37.8969 5.33844 36.1115 3.83206 33.2784C2.32567 30.4454 2.35887 27.2047 3.63702 24.5132C6.58322 24.9589 9.28798 26.7443 10.7942 29.5771Z" fill="#BDF485"/>
<path d="M88.9594 36.5676C88.8948 35.8038 88.3375 35.1727 87.5876 35.014C87.1551 34.9224 86.7195 34.8568 86.2835 34.8163C86.4315 34.5817 86.5721 34.3416 86.7032 34.0949C88.4016 30.9007 88.4878 27.0402 86.9337 23.768C86.6048 23.0757 85.8603 22.6804 85.1036 22.7949C81.5221 23.3366 78.37 25.5671 76.6716 28.7616C76.6714 28.7616 76.6714 28.7616 76.6714 28.7616C76.496 29.0913 76.3422 29.4298 76.2012 29.7724C75.1986 28.6317 73.9715 27.6835 72.576 27.009C71.8861 26.6758 71.0589 26.8333 70.54 27.3975C68.2288 29.9111 67.1561 33.3551 67.6087 36.7187C67.4865 36.7597 67.3675 36.8139 67.2541 36.8835C64.1659 38.7766 62.1307 42.0581 61.81 45.6618C61.5542 48.5367 62.4094 51.4021 64.139 53.667C63.0355 54.3298 61.8782 54.9134 60.6744 55.4097V52.8433C60.6744 49.9678 58.335 47.6285 55.4596 47.6285H51.1057V36.2664C51.1057 35.3063 50.3273 34.5281 49.3675 34.5281C48.4076 34.5281 47.6292 35.3063 47.6292 36.2664V49.3667C47.6292 50.3266 48.4076 51.105 49.3675 51.105H55.4596C56.4181 51.105 57.1979 51.8848 57.1979 52.8433V57.3628H31.8024V52.8433C31.8024 51.8848 32.5822 51.105 33.5406 51.105H39.6328C40.5926 51.105 41.371 50.3266 41.371 49.3667V16.9644C41.371 16.2615 40.9474 15.6275 40.298 15.3584C39.6484 15.0893 38.9008 15.2383 38.4036 15.7351L31.7975 22.3412L27.3727 17.9165L38.3369 6.95231H47.629V21.7744C47.629 22.7344 48.4074 23.5127 49.3673 23.5127C50.3272 23.5127 51.1056 22.7344 51.1056 21.7744V5.21386C51.1056 4.25381 50.3272 3.47559 49.3673 3.47559H37.6167C37.1557 3.47559 36.7137 3.6588 36.3876 3.98473L24.9143 15.458C24.2577 16.1148 23.8962 16.9877 23.8962 17.9165C23.8962 18.8452 24.2577 19.7182 24.9143 20.3749L29.3391 24.7997C30.6947 26.1554 32.9001 26.1554 34.2558 24.7997L37.8943 21.1611V47.6285H33.5405C30.665 47.6285 28.3256 49.9678 28.3256 52.8433V55.4097C27.1219 54.9134 25.9645 54.3297 24.8611 53.667C26.5907 51.4024 27.4459 48.537 27.19 45.6618C26.8691 42.0583 24.834 38.7766 21.7459 36.8835C21.6326 36.8139 21.5135 36.7597 21.3913 36.7187C21.844 33.3553 20.7713 29.9113 18.4601 27.3977C17.9412 26.8335 17.1145 26.6758 16.424 27.0092C15.0285 27.6837 13.8015 28.6319 12.7989 29.7725C12.6579 29.4299 12.504 29.0915 12.3286 28.7617C12.3286 28.7617 12.3286 28.7617 12.3285 28.7617C10.63 25.5673 7.47817 23.3368 3.89645 22.7951C3.13787 22.6809 2.39511 23.0758 2.0664 23.7682C0.51238 27.0403 0.598599 30.9009 2.29672 34.0951C2.42778 34.3416 2.56859 34.5818 2.71651 34.8165C2.28038 34.8572 1.84512 34.9225 1.41246 35.0141C0.662741 35.173 0.105276 35.8042 0.0406125 36.5678C-0.265324 40.1772 1.17101 43.7617 3.88289 46.1561C4.8605 47.0194 5.97178 47.6961 7.15815 48.1771C6.39835 48.5576 5.67679 49.0229 5.01051 49.5713C4.41898 50.0586 4.21612 50.8757 4.51146 51.583C5.90694 54.9256 8.83663 57.4412 12.3479 58.3128C13.2532 58.5373 14.175 58.6472 15.0932 58.6472C17.6726 58.6472 20.2189 57.777 22.2693 56.1469C22.9399 56.5797 23.6306 56.9847 24.3377 57.3633H22.2499C19.3744 57.3633 17.035 59.7027 17.035 62.5781V69.5314H16.6874C11.8949 69.5314 7.99583 73.4303 7.99583 78.2229V83.7854C7.99583 84.7453 8.77423 85.5237 9.7341 85.5237H34.4178C35.3776 85.5237 36.156 84.7453 36.156 83.7854C36.156 82.8256 35.3776 82.0472 34.4178 82.0472H11.4724V78.2229C11.4724 75.3475 13.8117 73.0081 16.6872 73.0081H18.7731H70.2267H72.3127C75.1881 73.0081 77.5275 75.3475 77.5275 78.2229V82.0472H50.4102C49.4504 82.0472 48.672 82.8256 48.672 83.7854C48.672 84.7453 49.4504 85.5237 50.4102 85.5237H79.266C80.2258 85.5237 81.0042 84.7453 81.0042 83.7854V78.2229C81.0042 73.4305 77.1053 69.5314 72.3127 69.5314H71.965V62.5781C71.965 59.7027 69.6257 57.3633 66.7502 57.3633H64.6624C65.3695 56.9847 66.0599 56.5797 66.7307 56.1469C68.7812 57.7774 71.3269 58.6472 73.9069 58.6472C74.8247 58.6472 75.7472 58.5373 76.6521 58.3128C80.1632 57.4414 83.0931 54.9257 84.4886 51.583C84.7839 50.8757 84.5811 50.0584 83.9895 49.5713C83.3233 49.0227 82.6015 48.5574 81.8417 48.1771C83.0281 47.6961 84.1396 47.0192 85.1172 46.1561C87.829 43.7613 89.2654 40.177 88.9594 36.5676ZM79.7414 30.3936C80.7244 28.5446 82.3373 27.1935 84.2795 26.5526C84.8345 28.5212 84.6164 30.6139 83.6334 32.4627C82.6505 34.3115 81.0376 35.6629 79.0954 36.3036C79.0356 36.0913 78.9864 35.8774 78.9445 35.6625C78.9218 35.5085 78.8969 35.3547 78.8675 35.2012C78.867 35.1987 78.8663 35.1963 78.866 35.1939C78.6482 33.5646 78.9414 31.8985 79.7414 30.3936ZM72.2525 30.8425C73.9187 32.0288 75.06 33.7963 75.4527 35.8532C75.8452 37.9101 75.4348 39.9738 74.3226 41.6903C72.6565 40.504 71.5152 38.7365 71.1225 36.6796C70.73 34.6227 71.1402 32.559 72.2525 30.8425ZM65.273 45.97C65.4587 43.8842 66.4184 42.0117 67.958 40.6654C69.2356 42.2626 69.8494 44.2751 69.6637 46.3607C69.4781 48.4467 68.5182 50.3191 66.9786 51.6656C65.701 50.0685 65.0874 48.0557 65.273 45.97ZM23.7272 45.97C23.9129 48.0557 23.2992 50.0683 22.0216 51.6656C20.482 50.3193 19.5221 48.4467 19.3365 46.3609C19.1509 44.2751 19.7646 42.2627 21.0423 40.6654C22.5819 42.0119 23.5416 43.8844 23.7272 45.97ZM16.7479 30.8425C17.86 32.559 18.2704 34.6227 17.8779 36.6796C17.4852 38.7365 16.3439 40.504 14.6778 41.6903C13.5656 39.9738 13.1552 37.9101 13.5477 35.8532C13.9404 33.7963 15.0817 32.0288 16.7479 30.8425ZM4.72074 26.5526C6.66309 27.1935 8.27586 28.5446 9.25886 30.3936C10.0588 31.8985 10.3521 33.5648 10.1343 35.1941C10.1337 35.1965 10.133 35.1989 10.1327 35.2014C10.1035 35.3548 10.0785 35.5087 10.0557 35.6627C10.0138 35.8774 9.96477 36.0914 9.9048 36.3038C7.96245 35.6629 6.34968 34.3117 5.36669 32.4627C4.38387 30.6139 4.16571 28.5212 4.72074 26.5526ZM3.50395 38.2428C5.54521 38.1599 7.53205 38.8592 9.10189 40.2453C10.6716 41.6312 11.6107 43.5141 11.7823 45.5523C9.73931 45.6319 7.75403 44.9357 6.18437 43.5496C4.61471 42.1637 3.67569 40.2809 3.50395 38.2428ZM19.0758 54.1287C17.3008 55.1458 15.2184 55.4429 13.1856 54.9381C11.1534 54.434 9.45076 53.1975 8.35739 51.4692C10.1318 50.4526 12.215 50.1554 14.2474 50.6598C15.4852 50.9668 16.5996 51.5469 17.5296 52.3428C17.7434 52.5538 17.96 52.7621 18.18 52.9667C18.5112 53.3232 18.8115 53.7112 19.0758 54.1287ZM68.4886 62.5778V69.5311H20.5116V62.5778C20.5116 61.6193 21.2914 60.8395 22.2499 60.8395H30.0641H58.9361H66.7504C67.7089 60.8393 68.4886 61.6193 68.4886 62.5778ZM75.815 54.9381C73.7822 55.4425 71.6994 55.1453 69.925 54.1287C70.1892 53.711 70.4898 53.3229 70.8211 52.9662C71.041 52.7619 71.2574 52.554 71.4708 52.343C72.401 51.5469 73.5154 50.9668 74.7532 50.6598C76.7858 50.1559 78.8688 50.4528 80.6432 51.4692C79.5496 53.1975 77.8472 54.434 75.815 54.9381ZM82.816 43.5496C81.2462 44.9355 79.2593 45.6334 77.2179 45.5523C77.3895 43.514 78.3287 41.6311 79.8983 40.2453C81.468 38.8592 83.4522 38.1609 85.4963 38.2428C85.3247 40.2809 84.3855 42.1637 82.816 43.5496Z" fill="black"/>
<path d="M42.2851 82.0464C41.828 82.0464 41.3795 82.2322 41.0562 82.5557C40.733 82.879 40.5469 83.3275 40.5469 83.7847C40.5469 84.2418 40.7329 84.6903 41.0562 85.0134C41.3795 85.3368 41.828 85.5229 42.2851 85.5229C42.7423 85.5229 43.1908 85.3369 43.5141 85.0134C43.8373 84.6903 44.0234 84.2418 44.0234 83.7847C44.0234 83.3275 43.8374 82.879 43.5141 82.5557C43.1908 82.2324 42.7423 82.0464 42.2851 82.0464Z" fill="black"/>
<path d="M49.3672 26.8364C48.91 26.8364 48.4615 27.0207 48.1382 27.344C47.8149 27.6691 47.6289 28.1158 47.6289 28.5747C47.6289 29.0319 47.8147 29.4803 48.1382 29.8037C48.4615 30.127 48.91 30.313 49.3672 30.313C49.8243 30.313 50.2728 30.127 50.596 29.8037C50.9193 29.4803 51.1055 29.0319 51.1055 28.5747C51.1055 28.1158 50.9195 27.6691 50.596 27.344C50.2728 27.0207 49.8243 26.8364 49.3672 26.8364Z" fill="black"/>
</g>
<defs>
<clipPath id="clip0_258_414">
<rect width="89" height="89" fill="white" transform="translate(0 -0.000488281)"/>
</clipPath>
</defs>
</svg>
