<svg width="89" height="90" viewBox="0 0 89 90" fill="none" xmlns="http://www.w3.org/2000/svg">
<g clip-path="url(#clip0_258_434)">
<path d="M44.5 80.8589C46.4201 80.8589 47.9766 79.2849 47.9766 77.3433C47.9766 75.4016 46.4201 73.8276 44.5 73.8276C42.5799 73.8276 41.0234 75.4016 41.0234 77.3433C41.0234 79.2849 42.5799 80.8589 44.5 80.8589Z" fill="#C63864"/>
<path d="M41.0234 59.062C41.0234 61.0026 42.5809 62.5776 44.5 62.5776C46.4191 62.5776 47.9766 61.0026 47.9766 59.062L55.625 63.9558V72.4495L47.9766 77.3433C47.9766 75.4026 46.4191 73.8276 44.5 73.8276C42.5809 73.8276 41.0234 75.4026 41.0234 77.3433L33.375 72.4495V63.9558L41.0234 59.062Z" fill="#F7A539"/>
<path d="M44.5 62.5776C46.4201 62.5776 47.9766 61.0036 47.9766 59.062C47.9766 57.1204 46.4201 55.5464 44.5 55.5464C42.5799 55.5464 41.0234 57.1204 41.0234 59.062C41.0234 61.0036 42.5799 62.5776 44.5 62.5776Z" fill="#C63864"/>
<path d="M34.4041 54.098L44.5 47.812L54.5959 54.098L62.5781 59.062V77.3433L44.5 88.5933L26.4219 77.3433V59.062L34.4041 54.098ZM55.625 72.4495V63.9558L47.9766 59.062C47.9766 57.1214 46.4191 55.5464 44.5 55.5464C42.5809 55.5464 41.0234 57.1214 41.0234 59.062L33.375 63.9558V72.4495L41.0234 77.3433C41.0234 79.2839 42.5809 80.8589 44.5 80.8589C46.4191 80.8589 47.9766 79.2839 47.9766 77.3433L55.625 72.4495Z" fill="#FFCC3E"/>
<path d="M66.9447 53.9433L55.625 52.0308L54.5959 54.098L62.5781 59.062V77.3433L44.5 88.5933L26.4219 77.3433V59.062L34.4041 54.098L33.375 52.0308L22.0553 53.9433C18.1059 54.6042 14.6711 56.6714 12.2375 59.5823C9.79 62.4933 8.34375 66.262 8.34375 70.312V89.9995H80.6562V70.312C80.6562 62.1979 74.8573 55.2651 66.9447 53.9433Z" fill="#0DA2D6"/>
<path d="M44.5 47.8118L34.4041 54.0978L33.375 52.0306L34.6683 44.1978C37.3244 46.4478 40.7592 47.8118 44.5 47.8118Z" fill="#F7A539"/>
<path d="M54.5959 54.0978L44.5 47.8118C48.2408 47.8118 51.6756 46.4478 54.3317 44.1978L55.625 52.0306L54.5959 54.0978Z" fill="#F7A539"/>
<path d="M54.3317 44.198C51.6756 46.448 48.2408 47.812 44.5 47.812C40.7592 47.812 37.3244 46.448 34.6683 44.198C34.3206 43.9026 29.2031 39.3745 29.2031 32.3433V23.9058C29.2031 23.9058 34.7656 19.687 44.5 19.687C54.2344 19.687 59.7969 23.9058 59.7969 23.9058V32.3433C59.7969 37.1104 57.6692 41.3573 54.3317 44.198Z" fill="#FFCC3E"/>
<path d="M63.9691 16.8745C65.318 22.3308 59.7972 23.9058 59.7972 23.9058C59.7972 23.9058 54.2347 19.687 44.5004 19.687C34.766 19.687 29.2035 23.9058 29.2035 23.9058C29.2035 23.9058 23.6827 22.3308 25.0316 16.8745C26.4222 11.2495 37.5472 4.21826 44.5004 4.21826C51.4535 4.21826 62.5785 11.2495 63.9691 16.8745Z" fill="#C63864"/>
<path d="M39.7153 58.2352L32.63 62.7689C32.2281 63.0263 31.9834 63.4749 31.9834 63.9572V68.9072C31.9834 69.6849 32.605 70.3135 33.374 70.3135C34.143 70.3135 34.7646 69.6849 34.7646 68.9072V64.7321L40.1728 61.2713C40.9766 62.873 42.6036 63.9854 44.499 63.9854C47.1829 63.9854 49.3662 61.7775 49.3662 59.0635C49.3662 56.3494 47.1829 54.1416 44.499 54.1416C42.096 54.1416 40.106 55.9177 39.7139 58.2366L39.7153 58.2352ZM46.5864 59.0621C46.5864 60.225 45.6505 61.1714 44.5004 61.1714C43.3504 61.1714 42.4145 60.225 42.4145 59.0621C42.4145 57.8991 43.3504 56.9527 44.5004 56.9527C45.6505 56.9527 46.5864 57.8991 46.5864 59.0621Z" fill="#252525"/>
<path d="M44.5 72.4213C41.8161 72.4213 39.6328 74.6291 39.6328 77.3432C39.6328 80.0573 41.8161 82.2651 44.5 82.2651C46.903 82.2651 48.893 80.489 49.2851 78.1701L56.3704 73.6363C56.7723 73.379 57.017 72.9304 57.017 72.448V67.498C57.017 66.7204 56.3954 66.0918 55.6264 66.0918C54.8574 66.0918 54.2358 66.7204 54.2358 67.498V71.6732L48.8276 75.134C48.0238 73.5323 46.3968 72.4199 44.5014 72.4199L44.5 72.4213ZM44.5 79.4526C43.35 79.4526 42.4141 78.5062 42.4141 77.3432C42.4141 76.1802 43.35 75.2338 44.5 75.2338C45.65 75.2338 46.5859 76.1802 46.5859 77.3432C46.5859 78.5062 45.65 79.4526 44.5 79.4526Z" fill="#252525"/>
<path d="M44.5 35.1558C45.269 35.1558 45.8906 34.5272 45.8906 33.7495V28.1245C45.8906 27.3469 45.269 26.7183 44.5 26.7183C43.731 26.7183 43.1094 27.3469 43.1094 28.1245V33.7495C43.1094 34.5272 43.731 35.1558 44.5 35.1558Z" fill="#252525"/>
<path d="M67.1741 52.5567L56.8334 50.8087L55.8252 44.7042C59.2309 41.5078 61.1875 37.0584 61.1875 32.3433V24.8817C63.5265 23.8242 66.4677 21.1861 65.3177 16.5342C63.781 10.3186 53.1441 3.69092 45.8906 2.89217V1.40576C45.8906 0.629512 45.269 -0.000488281 44.5 -0.000488281C43.731 -0.000488281 43.1094 0.628106 43.1094 1.40576V2.89217C35.8559 3.68951 25.219 10.3186 23.6823 16.5342C22.5323 21.1875 25.4721 23.8242 27.8125 24.8817V32.3433C27.8125 39.3745 33.0162 44.5734 33.172 44.7183L32.1665 50.8087L21.8286 52.5567C17.6762 53.25 13.8923 55.424 11.1778 58.6725C8.45361 61.9139 6.95312 66.0469 6.95312 70.312V88.5933C6.95312 89.3709 7.57473 89.9995 8.34375 89.9995C9.11277 89.9995 9.73437 89.3709 9.73437 88.5933V70.312C9.73437 66.7134 10.9998 63.2259 13.2985 60.4908C15.5889 57.75 18.7804 55.9176 22.2848 55.3312L32.5531 53.5959L25.6932 57.8653C25.2816 58.1212 25.0299 58.574 25.0299 59.0634V77.3447C25.0299 77.834 25.2802 78.2869 25.6918 78.5428L43.7699 89.7928C43.9938 89.932 44.2469 90.0009 44.4986 90.0009C44.7503 90.0009 45.0034 89.9306 45.2273 89.7928L63.3054 78.5428C63.717 78.2869 63.9674 77.834 63.9674 77.3447V59.0634C63.9674 58.574 63.7156 58.1212 63.304 57.8653L56.4441 53.5959L66.7152 55.3312C73.9868 56.5448 79.2628 62.8462 79.2628 70.312V88.5933C79.2628 89.3709 79.8844 89.9995 80.6535 89.9995C81.4225 89.9995 82.0441 89.3709 82.0441 88.5933V70.312C82.0441 61.4625 75.7877 53.9953 67.1714 52.5567H67.1741ZM26.3802 17.2148C27.5858 12.3408 38.085 5.62451 44.5 5.62451C50.9149 5.62451 61.4142 12.3408 62.6198 17.2148C63.4111 20.4169 61.1263 21.84 59.9832 22.3406C58.2018 21.2058 52.8076 18.2808 44.5 18.2808C36.1924 18.2808 30.7982 21.2058 29.0168 22.3406C27.8737 21.84 25.5889 20.4169 26.3802 17.2148ZM30.5937 32.3433V24.6651C32.1791 23.6864 37.0782 21.0933 44.5 21.0933C51.9218 21.0933 56.8209 23.6864 58.4062 24.6651V32.3433C58.4062 36.5044 56.5943 40.4334 53.4389 43.1194C50.9386 45.2386 47.7638 46.4058 44.5 46.4058C41.2362 46.4058 38.0614 45.2386 35.5625 43.1208C35.244 42.8522 30.5937 39.3745 30.5937 32.3433ZM35.6737 46.6476C37.1464 47.5758 38.7484 48.269 40.4255 48.6965L34.7531 52.2262L35.6737 46.6476ZM61.1875 76.5572L44.5 86.9423L27.8125 76.5572V59.8467L35.1327 55.2947L44.4986 49.4644L61.1861 59.8481V76.5586L61.1875 76.5572ZM48.5745 48.6965C50.2516 48.269 51.8522 47.5744 53.3263 46.6462L54.2469 52.2262L48.5745 48.6965Z" fill="#252525"/>
<path d="M44.4996 42.1872C48.6089 42.1872 52.2982 39.5518 53.6819 35.6284C53.9391 34.8957 53.5609 34.0914 52.8392 33.8312C52.1105 33.5725 51.3192 33.9522 51.0619 34.6834C50.0746 37.4889 47.438 39.3747 44.501 39.3747C43.732 39.3747 43.1104 40.0032 43.1104 40.7809C43.1104 41.5586 43.732 42.1872 44.501 42.1872H44.4996Z" fill="#252525"/>
<path d="M20.8594 75.937C20.0904 75.937 19.4688 76.5656 19.4688 77.3433V88.5933C19.4688 89.3709 20.0904 89.9995 20.8594 89.9995C21.6284 89.9995 22.25 89.3709 22.25 88.5933V77.3433C22.25 76.5656 21.6284 75.937 20.8594 75.937Z" fill="#252525"/>
<path d="M68.1406 75.937C67.3716 75.937 66.75 76.5656 66.75 77.3433V88.5933C66.75 89.3709 67.3716 89.9995 68.1406 89.9995C68.9096 89.9995 69.5312 89.3709 69.5312 88.5933V77.3433C69.5312 76.5656 68.9096 75.937 68.1406 75.937Z" fill="#252525"/>
<path d="M55.625 16.8745C56.393 16.8745 57.0156 16.2449 57.0156 15.4683C57.0156 14.6916 56.393 14.062 55.625 14.062C54.857 14.062 54.2344 14.6916 54.2344 15.4683C54.2344 16.2449 54.857 16.8745 55.625 16.8745Z" fill="#252525"/>
<path d="M51.4531 14.062C52.2211 14.062 52.8438 13.4324 52.8438 12.6558C52.8438 11.8791 52.2211 11.2495 51.4531 11.2495C50.6851 11.2495 50.0625 11.8791 50.0625 12.6558C50.0625 13.4324 50.6851 14.062 51.4531 14.062Z" fill="#252525"/>
</g>
<defs>
<clipPath id="clip0_258_434">
<rect width="89" height="90" fill="white" transform="translate(0 -0.000488281)"/>
</clipPath>
</defs>
</svg>
