<svg width="24" height="24" viewBox="0 0 24 24" fill="none" xmlns="http://www.w3.org/2000/svg">
<path fill-rule="evenodd" clip-rule="evenodd" d="M14.1926 3C15.9802 3 17.5192 4.26173 17.8698 6.01457L19.2312 12.8217C19.3592 13.4616 19.318 14.1239 19.1116 14.743L18.0473 17.9359C17.5369 19.4671 16.1039 20.5 14.4897 20.5H8.81429C7.20018 20.5 5.76716 19.4671 5.25673 17.9359L4.19244 14.743C3.98607 14.1239 3.94484 13.4616 4.07282 12.8217L5.43425 6.01456C5.78482 4.26172 7.32387 3 9.11143 3H14.1926ZM16.3989 6.30874C16.1886 5.25704 15.2651 4.5 14.1926 4.5H9.11143C8.03889 4.5 7.11546 5.25703 6.90512 6.30874L5.56589 13.0049C5.59412 13.0017 5.62283 13 5.65193 13H7.24439C8.03739 13 8.79179 13.3423 9.31398 13.9391L9.86874 14.5731C10.1061 14.8444 10.449 15 10.8095 15H12.4944C12.8548 15 13.1978 14.8444 13.4351 14.5731L13.9899 13.9391C14.5121 13.3423 15.2665 13 16.0595 13H17.6519C17.6811 13 17.7099 13.0017 17.7381 13.0049L16.3989 6.30874ZM17.6114 14.5H16.0595C15.699 14.5 15.3561 14.6556 15.1187 14.9269L14.564 15.5609C14.0418 16.1577 13.2874 16.5 12.4944 16.5H10.8095C10.0165 16.5 9.26207 16.1577 8.73988 15.5609L8.18511 14.9269C7.94775 14.6556 7.60485 14.5 7.24439 14.5H5.69258L6.67975 17.4615C6.98601 18.3803 7.84582 19 8.81429 19H14.4897C15.4582 19 16.318 18.3803 16.6243 17.4615L17.6114 14.5ZM8.40193 7.75C8.40193 7.33579 8.73771 7 9.15193 7L14.1519 7C14.5661 7 14.9019 7.33579 14.9019 7.75C14.9019 8.16421 14.5661 8.5 14.1519 8.5L9.15193 8.5C8.73771 8.5 8.40193 8.16421 8.40193 7.75ZM8.15193 10C7.73771 10 7.40193 10.3358 7.40193 10.75C7.40193 11.1642 7.73771 11.5 8.15193 11.5L15.1519 11.5C15.5661 11.5 15.9019 11.1642 15.9019 10.75C15.9019 10.3358 15.5661 10 15.1519 10L8.15193 10Z" fill="#002169"/>
</svg>
