<svg width="101" height="112" viewBox="0 0 101 112" fill="none" xmlns="http://www.w3.org/2000/svg">
<path fill-rule="evenodd" clip-rule="evenodd" d="M76.4886 62.3174C62.969 62.3174 51.9771 73.3093 51.9771 86.829C51.9771 100.349 62.969 111.341 76.4886 111.341C90.0083 111.341 101 100.349 101 86.829C101 73.3093 90.0083 62.3174 76.4886 62.3174Z" fill="#4BAE4F"/>
<path d="M71.7793 97.9889C68.6544 94.8701 65.5487 91.7227 62.4143 88.6039C62.0702 88.2605 62.0702 87.6883 62.4143 87.3449L66.0169 83.7492C66.361 83.4059 66.9343 83.4059 67.2784 83.7492L72.4291 88.89L85.674 75.6613C86.0275 75.318 86.5913 75.318 86.9449 75.6613L90.5572 79.2665C90.9107 79.6194 90.9107 80.1822 90.5572 80.5255L73.0407 97.9889C72.6967 98.3418 72.1329 98.3418 71.7793 97.9889Z" fill="white"/>
<path d="M68.6912 45.6999C68.6912 43.4054 66.8313 41.5454 64.5367 41.5454H21.7453C19.4508 41.5454 17.5908 43.4054 17.5908 45.6999C17.5908 47.9944 19.4508 49.8544 21.7453 49.8544H64.5367C66.8313 49.8544 68.6912 47.9944 68.6912 45.6999Z" fill="black"/>
<path d="M21.7453 58.1631C19.4508 58.1631 17.5908 60.0231 17.5908 62.3176C17.5908 64.6121 19.4508 66.4721 21.7453 66.4721H47.734C50.0286 66.4721 51.8885 64.6121 51.8885 62.3176C51.8885 60.0231 50.0286 58.1631 47.734 58.1631H21.7453Z" fill="black"/>
<path d="M44.0845 98.0463H17.6141C13.0325 98.0463 9.3051 94.3189 9.3051 89.7373V16.618C9.3051 12.0364 13.0325 8.30901 17.6141 8.30901H68.6915C73.2731 8.30901 77.0005 12.0364 77.0005 16.618V51.7236C77.0005 54.0181 78.8605 55.8781 81.155 55.8781C83.4495 55.8781 85.3095 54.0181 85.3095 51.7236V16.618C85.3095 7.45484 77.8546 0 68.6915 0H17.6141C8.45094 0 0.996094 7.45484 0.996094 16.618V89.7373C0.996094 98.9005 8.45094 106.355 17.6141 106.355H44.0845C46.379 106.355 48.239 104.495 48.239 102.201C48.239 99.9063 46.379 98.0463 44.0845 98.0463Z" fill="black"/>
<path d="M64.5367 24.9272H21.7453C19.4508 24.9272 17.5908 26.7872 17.5908 29.0818C17.5908 31.3763 19.4508 33.2363 21.7453 33.2363H64.5367C66.8313 33.2363 68.6912 31.3763 68.6912 29.0818C68.6912 26.7872 66.8313 24.9272 64.5367 24.9272Z" fill="black"/>
</svg>
