<svg width="69" height="69" viewBox="0 0 69 69" fill="none" xmlns="http://www.w3.org/2000/svg">
<path d="M38.8125 51.0314C38.8125 47.1501 41.1904 43.8178 44.5627 42.4064V41.6873C44.5627 39.9396 44.9849 38.3008 45.6866 36.8142C43.513 35.3565 40.9024 34.5 38.0939 34.5H13.6561C6.12657 34.5 0 40.6266 0 48.1561V58.2188C0 59.409 0.965996 60.375 2.15625 60.375H38.8125V51.0314Z" fill="#002169"/>
<path d="M40.2501 14.3752C40.2501 22.3142 33.814 28.7498 25.8749 28.7498C17.9359 28.7498 11.4998 22.3142 11.4998 14.3752C11.4998 6.43611 17.9359 0 25.8749 0C33.814 0 40.2501 6.43611 40.2501 14.3752Z" fill="#002169"/>
<path d="M63.9689 45.9998H48.1561C45.3818 45.9998 43.125 48.2566 43.125 51.0314V61.0935C43.125 63.8683 45.3818 66.1251 48.1561 66.1251H63.9689C66.7432 66.1251 69 63.8683 69 61.0935V51.0314C69 48.2566 66.7432 45.9998 63.9689 45.9998V45.9998Z" fill="#FE3B1F"/>
<path d="M56.0626 34.5C52.098 34.5 48.8752 37.726 48.8752 41.6873V45.9998H53.1877V41.6873C53.1877 40.1033 54.4754 38.8125 56.0626 38.8125C57.6497 38.8125 58.9374 40.1033 58.9374 41.6873V45.9998H63.2499V41.6873C63.2499 37.726 60.0271 34.5 56.0626 34.5Z" fill="#002169"/>
</svg>
