<svg width="24" height="24" viewBox="0 0 24 24" fill="none" xmlns="http://www.w3.org/2000/svg">
<path fill-rule="evenodd" clip-rule="evenodd" d="M11.75 4.5C10.5074 4.5 9.5 5.50736 9.5 6.75C9.5 7.99264 10.5074 9 11.75 9C12.9926 9 14 7.99264 14 6.75C14 5.50736 12.9926 4.5 11.75 4.5ZM8 6.75C8 4.67893 9.67893 3 11.75 3C13.8211 3 15.5 4.67893 15.5 6.75C15.5 8.82107 13.8211 10.5 11.75 10.5C9.67893 10.5 8 8.82107 8 6.75Z" fill="#002169"/>
<path fill-rule="evenodd" clip-rule="evenodd" d="M8.17703 13.8048C7.13575 14.6207 6.5 15.6741 6.5 16.75C6.5 17.2814 6.65091 17.6378 6.87223 17.8999C7.10492 18.1755 7.46372 18.4029 7.96258 18.5778C8.98218 18.9352 10.3622 19 11.75 19C13.1378 19 14.5178 18.9352 15.5374 18.5778C16.0363 18.4029 16.3951 18.1755 16.6278 17.8999C16.8491 17.6378 17 17.2814 17 16.75C17 15.6741 16.3642 14.6207 15.323 13.8048C14.2846 12.9912 12.9442 12.5 11.75 12.5C10.5558 12.5 9.21545 12.9912 8.17703 13.8048ZM7.2519 12.6241C8.52313 11.6281 10.1828 11 11.75 11C13.3172 11 14.9769 11.6281 16.2481 12.6241C17.5165 13.6179 18.5 15.0645 18.5 16.75C18.5 17.5993 18.2461 18.3083 17.7739 18.8676C17.313 19.4134 16.6896 19.7634 16.0336 19.9933C14.7436 20.4455 13.1236 20.5 11.75 20.5C10.3764 20.5 8.75639 20.4455 7.46636 19.9933C6.8104 19.7634 6.18696 19.4134 5.72612 18.8676C5.25391 18.3083 5 17.5993 5 16.75C5 15.0645 5.98353 13.6179 7.2519 12.6241Z" fill="#002169"/>
</svg>
