<svg width="26" height="26" viewBox="0 0 26 26" fill="none" xmlns="http://www.w3.org/2000/svg">
<g clip-path="url(#clip0_168_405)">
<path fill-rule="evenodd" clip-rule="evenodd" d="M23.1728 4.46696C24.2864 4.76689 25.1646 5.64484 25.4643 6.75865C26.0213 8.79307 25.9999 13.0337 25.9999 13.0337C25.9999 13.0337 25.9999 17.2527 25.4645 19.2873C25.1646 20.4009 24.2866 21.2791 23.1728 21.5788C21.1382 22.1144 12.9999 22.1144 12.9999 22.1144C12.9999 22.1144 4.88291 22.1144 2.82708 21.5576C1.71326 21.2576 0.835308 20.3795 0.535383 19.2659C0 17.2527 0 13.0123 0 13.0123C0 13.0123 0 8.79307 0.535383 6.75865C0.83511 5.64504 1.73469 4.74546 2.82688 4.44574C4.86149 3.91016 12.9997 3.91016 12.9997 3.91016C12.9997 3.91016 21.1382 3.91016 23.1728 4.46696ZM17.1762 13.0122L10.4086 16.9101V9.11437L17.1762 13.0122Z" fill="#696969"/>
</g>
<defs>
<clipPath id="clip0_168_405">
<rect width="26" height="26" fill="white"/>
</clipPath>
</defs>
</svg>
