<svg width="119" height="36" viewBox="0 0 119 36" fill="none" xmlns="http://www.w3.org/2000/svg">
<g clip-path="url(#clip0_28_14828)">
<path d="M2.23339 35.6809C1.85054 35.4681 1.53151 35.1702 1.31882 34.8085C1.10613 34.4255 0.978516 34.0213 0.978516 33.5319C0.978516 33.0426 1.08486 32.6383 1.31882 32.2553C1.55278 31.8724 1.85054 31.5958 2.23339 31.383C2.61623 31.1702 3.06288 31.0638 3.55206 31.0638C3.93491 31.0638 4.29648 31.1277 4.63678 31.2766C4.95582 31.4043 5.23231 31.617 5.46627 31.8724L4.89201 32.4043C4.55171 32.0213 4.12633 31.8511 3.61587 31.8511C3.29684 31.8511 2.99907 31.9149 2.72257 32.0638C2.46735 32.2128 2.25465 32.4043 2.10577 32.6596C1.95689 32.9149 1.89308 33.2128 1.89308 33.5319C1.89308 33.8511 1.95689 34.1489 2.10577 34.4043C2.25465 34.6596 2.44608 34.8511 2.72257 35C2.9778 35.1489 3.27557 35.2128 3.61587 35.2128C4.12633 35.2128 4.55171 35.0213 4.89201 34.6383L5.46627 35.1915C5.23231 35.4468 4.97709 35.6596 4.63678 35.7872C4.29648 35.9149 3.95617 36 3.55206 36C3.06288 36 2.61623 35.8936 2.23339 35.6809Z" fill="#4DBAE5"/>
<path d="M12.8894 35.1915V35.9362H9.29492V31.1277H12.8043V31.8724H10.1882V33.1277H12.5065V33.8511H10.1882V35.1702H12.8894V35.1915Z" fill="#4DBAE5"/>
<path d="M18.695 31.1277V35.9362H17.9718L15.3132 32.6809V35.9362H14.4199V31.1277H15.1431L17.7804 34.383V31.1277H18.695Z" fill="#4DBAE5"/>
<path d="M21.5034 31.8936H19.9082V31.1489H23.9706V31.8936H22.3754V35.9362H21.4821V31.8936H21.5034Z" fill="#4DBAE5"/>
<path d="M28.7976 35.1915V35.9362H25.2031V31.1277H28.7125V31.8724H26.0964V33.1277H28.4147V33.8511H26.0964V35.1702H28.7976V35.1915Z" fill="#4DBAE5"/>
<path d="M33.4779 35.9362L32.4995 34.5319C32.457 34.5319 32.3932 34.5319 32.3081 34.5319H31.2234V35.9362H30.3301V31.1277H32.3081C32.7335 31.1277 33.095 31.1915 33.3928 31.3405C33.6906 31.4681 33.9458 31.6809 34.0947 31.9362C34.2648 32.1915 34.3499 32.4894 34.3499 32.8511C34.3499 33.2128 34.2648 33.5319 34.0947 33.7873C33.9245 34.0426 33.6693 34.2341 33.329 34.3617L34.435 35.9362H33.4779V35.9362ZM33.1589 32.1277C32.9674 31.9575 32.6697 31.8724 32.2656 31.8724H31.2234V33.7873H32.2656C32.6484 33.7873 32.9462 33.7022 33.1589 33.5319C33.3503 33.3617 33.4566 33.1277 33.4566 32.8298C33.4566 32.5319 33.3503 32.2979 33.1589 32.1277Z" fill="#4DBAE5"/>
<path d="M36.7963 31.8936H35.2012V31.1489H39.2636V31.8936H37.6684V35.9362H36.7963V31.8936Z" fill="#4DBAE5"/>
<path d="M43.3677 34.8298H40.9643L40.4964 35.9362H39.5605L41.7087 31.1277H42.5807L44.7502 35.9362H43.8143L43.3677 34.8298ZM43.0699 34.1277L42.1554 32.0213L41.2621 34.1277H43.0699Z" fill="#4DBAE5"/>
<path d="M45.9199 31.1277H46.8132V35.9362H45.9199V31.1277Z" fill="#4DBAE5"/>
<path d="M52.9179 31.1277V35.9362H52.1947L49.5574 32.6809V35.9362H48.6641V31.1277H49.3872L52.0246 34.383V31.1277H52.9179Z" fill="#4DBAE5"/>
<path d="M59.1703 35.9362V32.7659L57.5964 35.4042H57.1922L55.6183 32.8085V35.9574H54.7676V31.1489H55.4907L57.4049 34.3404L59.2766 31.1489H59.9998V35.9574H59.1703V35.9362Z" fill="#4DBAE5"/>
<path d="M65.4441 35.1915V35.9362H61.8496V31.1277H65.359V31.8724H62.7429V33.1277H65.0612V33.8511H62.7429V35.1702H65.4441V35.1915Z" fill="#4DBAE5"/>
<path d="M71.2518 31.1277V35.9362H70.5287L67.8913 32.6809V35.9362H66.998V31.1277H67.7212L70.3585 34.383V31.1277H71.2518Z" fill="#4DBAE5"/>
<path d="M74.0581 31.8936H72.4629V31.1489H76.5253V31.8936H74.9301V35.9362H74.0368V31.8936H74.0581Z" fill="#4DBAE5"/>
<path d="M80.609 35.851C80.2687 35.7447 79.9922 35.617 79.8008 35.4255L80.0985 34.7234C80.29 34.8723 80.5452 35 80.8217 35.1064C81.0982 35.2127 81.396 35.2553 81.6724 35.2553C82.034 35.2553 82.2892 35.1915 82.4807 35.0851C82.6721 34.9787 82.7359 34.8298 82.7359 34.6383C82.7359 34.5106 82.6934 34.383 82.587 34.2978C82.4807 34.2127 82.3743 34.1489 82.2042 34.0851C82.034 34.0213 81.8426 33.9787 81.5874 33.9149C81.2258 33.8298 80.928 33.7447 80.6941 33.6595C80.4601 33.5744 80.2687 33.4468 80.1198 33.2553C79.9497 33.0638 79.8859 32.8298 79.8859 32.5106C79.8859 32.2553 79.9497 32 80.0985 31.7872C80.2474 31.5744 80.4601 31.4042 80.7579 31.2766C81.0557 31.1489 81.396 31.0851 81.8213 31.0851C82.1191 31.0851 82.3956 31.1276 82.6934 31.1915C82.9699 31.2553 83.2251 31.3617 83.4165 31.5106L83.14 32.2127C82.9273 32.0851 82.7146 32 82.4807 31.9361C82.2467 31.8723 82.034 31.8298 81.8213 31.8298C81.4598 31.8298 81.2045 31.8936 81.0344 32C80.8642 32.1276 80.7791 32.2766 80.7791 32.4681C80.7791 32.5957 80.8217 32.7234 80.928 32.8085C81.0344 32.8936 81.1407 32.9574 81.3109 33.0213C81.4598 33.0638 81.6725 33.1276 81.9277 33.1915C82.2893 33.2766 82.5657 33.3617 82.7997 33.4468C83.0337 33.5319 83.2251 33.6808 83.3952 33.851C83.5654 34.0425 83.6292 34.2766 83.6292 34.5957C83.6292 34.851 83.5654 35.1064 83.4165 35.3191C83.2676 35.5319 83.0549 35.7021 82.7572 35.8298C82.4594 35.9574 82.1191 36.0213 81.6937 36.0213C81.3109 36 80.9493 35.9574 80.609 35.851Z" fill="#4DBAE5"/>
<path d="M88.1609 34.8298H85.7575L85.2896 35.9362H84.375L86.5232 31.1277H87.3952L89.5646 35.9362H88.6288L88.1609 34.8298ZM87.8631 34.1277L86.9485 32.0213L86.0552 34.1277H87.8631Z" fill="#4DBAE5"/>
<path d="M94.9882 31.1277V35.9362H94.265L91.6277 32.6809V35.9362H90.7344V31.1277H91.4575L94.0949 34.383V31.1277H94.9882Z" fill="#4DBAE5"/>
<path d="M96.8379 31.1277H98.9435C99.454 31.1277 99.9006 31.2341 100.305 31.4256C100.709 31.617 101.007 31.9149 101.219 32.2766C101.432 32.6383 101.538 33.0639 101.538 33.5319C101.538 34 101.432 34.4256 101.219 34.7873C101.007 35.149 100.688 35.4256 100.305 35.6383C99.9006 35.8298 99.454 35.9362 98.9435 35.9362H96.8379V31.1277ZM98.8797 35.1702C99.2413 35.1702 99.5391 35.1064 99.8155 34.9575C100.092 34.8298 100.283 34.6383 100.432 34.383C100.581 34.1277 100.645 33.8511 100.645 33.5107C100.645 33.1915 100.581 32.8936 100.432 32.6383C100.283 32.383 100.092 32.1915 99.8155 32.0639C99.5391 31.9362 99.2413 31.8511 98.8797 31.8511H97.7099V35.149H98.8797V35.1702Z" fill="#4DBAE5"/>
<path d="M107.068 33.8724C107.217 34.0851 107.302 34.3192 107.302 34.6383C107.302 35.0639 107.132 35.383 106.813 35.5958C106.494 35.8298 106.026 35.9362 105.409 35.9362H103.027V31.1277H105.282C105.856 31.1277 106.282 31.2341 106.601 31.4681C106.898 31.6809 107.068 32 107.068 32.383C107.068 32.617 107.005 32.8298 106.898 33.0213C106.792 33.2128 106.643 33.3405 106.452 33.4468C106.707 33.5319 106.92 33.6596 107.068 33.8724ZM103.921 31.8298V33.149H105.176C105.495 33.149 105.729 33.0851 105.899 32.9787C106.069 32.8724 106.154 32.7022 106.154 32.4894C106.154 32.2766 106.069 32.1064 105.899 32C105.729 31.8936 105.495 31.8298 105.176 31.8298H103.921V31.8298ZM106.409 34.5319C106.409 34.0639 106.069 33.8298 105.367 33.8298H103.921V35.2128H105.367C106.069 35.2341 106.409 35 106.409 34.5319Z" fill="#4DBAE5"/>
<path d="M109.728 35.6809C109.345 35.4681 109.026 35.1702 108.813 34.7872C108.579 34.4043 108.473 33.9787 108.473 33.5319C108.473 33.0638 108.579 32.6383 108.813 32.2766C109.047 31.8936 109.345 31.5958 109.728 31.383C110.11 31.1702 110.557 31.0638 111.046 31.0638C111.535 31.0638 111.982 31.1702 112.365 31.383C112.748 31.5958 113.067 31.8936 113.279 32.2553C113.513 32.6383 113.62 33.0426 113.62 33.5319C113.62 34.0213 113.513 34.4255 113.279 34.8085C113.045 35.1915 112.748 35.4681 112.365 35.6809C111.982 35.8936 111.535 36 111.046 36C110.557 36 110.11 35.8936 109.728 35.6809ZM111.897 35C112.152 34.8511 112.344 34.6596 112.493 34.4043C112.641 34.1489 112.705 33.8511 112.705 33.5319C112.705 33.2128 112.641 32.9149 112.493 32.6596C112.344 32.4043 112.152 32.1915 111.897 32.0638C111.642 31.9149 111.344 31.8511 111.025 31.8511C110.706 31.8511 110.408 31.9149 110.153 32.0638C109.898 32.2128 109.706 32.4043 109.557 32.6596C109.408 32.9149 109.345 33.2128 109.345 33.5319C109.345 33.8511 109.408 34.1489 109.557 34.4043C109.706 34.6596 109.898 34.8724 110.153 35C110.408 35.1489 110.706 35.2128 111.025 35.2128C111.365 35.2128 111.642 35.1489 111.897 35Z" fill="#4DBAE5"/>
<path d="M117.979 35.9362L116.682 34.1064L115.384 35.9362H114.363L116.15 33.4894L114.47 31.1277H115.469L116.703 32.8298L117.915 31.1277H118.872L117.192 33.4468L119 35.9362H117.979Z" fill="#4DBAE5"/>
<path d="M13.7181 0C9.06018 0 4.95527 2.2766 2.4668 5.74468H13.7181H20.7156C23.8847 5.74468 26.4582 3.17021 26.4582 0H13.7181Z" fill="url(#paint0_linear_28_14828)"/>
<path d="M5.87024 13.4681C5.87024 11.6383 6.52958 9.95749 7.6143 8.61707H0.914567C0.319035 10.1277 0 11.766 0 13.4681C0 20.9149 6.14674 26.9362 13.7185 26.9362H26.4586V21.1915H13.7185C9.37962 21.1915 5.87024 17.7234 5.87024 13.4681Z" fill="#3C75BA"/>
<path d="M102.112 13.4681L108.259 5.74468H109.578H109.684H110.237H112.768C115.937 5.74468 118.511 3.17021 118.511 0H110.237H109.684H105.494L105.473 0.0212766L98.4329 8.80851L91.3716 0.0425532L91.3503 0H74.2501H56.7882H55.0867C51.9176 0 49.3441 2.57447 49.3441 5.74468V18.0851L33.9028 0H28.1602V26.9362C31.3292 26.9362 33.9028 24.3617 33.9028 21.1915V8.59575L49.3228 26.9149H55.0654V5.74468H56.7669H71.3575C72.9527 5.74468 74.7605 7.02128 74.7605 8.61702H56.7882H57.3199C57.3199 11.7872 59.8935 14.3617 63.0626 14.3617H74.5691C76.4408 14.3617 77.9721 15.8936 77.9721 17.766C77.9721 19.617 76.4833 21.1277 74.6329 21.1702H65.9339H56.7882V26.9149H78.121H91.3503L91.3716 26.8936L97.0079 19.8723L93.3283 15.2766L88.5854 21.1915H83.7148V16.3617C83.7148 13.9149 82.1834 11.8085 80.014 10.9787V5.74468H88.6066L94.7959 13.4681L98.1139 17.617L98.4329 18.0426L105.537 26.8936L105.558 26.9149H118.128V21.1702H108.323L102.112 13.4681Z" fill="#3C75BA"/>
<path d="M88.5859 21.1915H83.7153C83.7153 21.1915 83.8642 26.6596 77.9727 26.9787L91.3721 26.9362L97.0297 19.8724L93.3501 15.2766L88.5859 21.1915Z" fill="url(#paint1_linear_28_14828)"/>
</g>
<defs>
<linearGradient id="paint0_linear_28_14828" x1="13.6247" y1="10.3237" x2="14.9409" y2="-0.985403" gradientUnits="userSpaceOnUse">
<stop stop-color="#1A4F69"/>
<stop offset="0.5368" stop-color="#3982A2"/>
<stop offset="0.9611" stop-color="#4FBBE5"/>
</linearGradient>
<linearGradient id="paint1_linear_28_14828" x1="75.9975" y1="21.1215" x2="97.3489" y2="21.1215" gradientUnits="userSpaceOnUse">
<stop stop-color="#1A4F69"/>
<stop offset="0.5368" stop-color="#3982A2"/>
<stop offset="0.9611" stop-color="#4FBBE5"/>
</linearGradient>
<clipPath id="clip0_28_14828">
<rect width="119" height="36" fill="white"/>
</clipPath>
</defs>
</svg>
