<svg width="31" height="23" viewBox="0 0 31 23" fill="none" xmlns="http://www.w3.org/2000/svg">
<path d="M3.1364 0C1.40405 0 0 1.40405 0 3.13635C0 4.86864 1.40405 6.27274 3.1364 6.27274C4.86869 6.27274 6.27274 4.86869 6.27274 3.13635C6.27274 1.404 4.86869 0 3.1364 0ZM3.1364 8.3636C1.40405 8.3636 0 9.7677 0 11.5C0 13.2323 1.40405 14.6364 3.1364 14.6364C4.86869 14.6364 6.27274 13.2323 6.27274 11.5C6.27274 9.7677 4.86869 8.3636 3.1364 8.3636ZM3.1364 16.7273C1.40405 16.7273 0 18.1313 0 19.8636C0 21.596 1.40405 23 3.1364 23C4.86869 23 6.27274 21.596 6.27274 19.8636C6.27274 18.1313 4.86869 16.7273 3.1364 16.7273ZM11.5 5.22726H28.2273C29.3825 5.22726 30.3182 4.29156 30.3182 3.13635C30.3182 1.98113 29.3825 1.04543 28.2273 1.04543H11.5C10.3448 1.04543 9.40909 1.98113 9.40909 3.13635C9.40909 4.29156 10.3448 5.22726 11.5 5.22726ZM28.2273 9.40909H11.5C10.3448 9.40909 9.40909 10.3448 9.40909 11.5C9.40909 12.6552 10.3448 13.5909 11.5 13.5909H28.2273C29.3825 13.5909 30.3182 12.6552 30.3182 11.5C30.3182 10.3448 29.3825 9.40909 28.2273 9.40909ZM28.2273 17.7727H11.5C10.3448 17.7727 9.40909 18.7084 9.40909 19.8636C9.40909 21.0188 10.3448 21.9545 11.5 21.9545H28.2273C29.3825 21.9545 30.3182 21.0188 30.3182 19.8636C30.3182 18.7084 29.3825 17.7727 28.2273 17.7727Z" fill="#002169"/>
</svg>
