<svg width="218" height="34" viewBox="0 0 218 34" fill="none" xmlns="http://www.w3.org/2000/svg">
<path d="M107.329 26.0251H104.72V24.1604H112.035V26.0251H109.426V33.8305H107.329V26.0251Z" fill="#002169"/>
<path d="M190.379 24.1643H188.338V27.0425L190.379 26.486V24.1643Z" fill="#002169"/>
<path d="M191.721 28.756V26.626L187.129 27.8753V28.756H188.338V31.719C188.338 33.0973 189.082 33.8306 190.49 33.8306H191.721V32.2423H190.379V28.7524H191.721V28.756Z" fill="#002169"/>
<path d="M113.277 24.1641H115.318V27.8124H115.399C115.661 27.0533 116.269 26.4194 117.415 26.4194C118.893 26.4194 119.678 27.4697 119.678 29.2902V33.8304H117.636V29.4561C117.636 28.5311 117.375 28.0778 116.63 28.0778C115.967 28.0778 115.318 28.4242 115.318 29.1391V33.8304H113.277V24.1641Z" fill="#002169"/>
<path d="M120.92 31.8846C120.92 30.3516 122.107 29.6219 124.027 29.6219H125.173V29.1649C125.173 28.4611 124.826 28.0188 123.971 28.0188C123.116 28.0188 122.729 28.4316 122.412 28.8738L121.196 27.7977C121.775 26.9427 122.604 26.4194 124.122 26.4194C126.164 26.4194 127.214 27.3592 127.214 29.0691V32.2421H127.889V33.8304H126.757C126.083 33.8304 125.585 33.403 125.42 32.7396L125.379 32.559H125.298C125.077 33.4988 124.277 33.9926 123.172 33.9926C121.723 33.9926 120.924 33.1376 120.924 31.881L120.92 31.8846ZM125.169 31.6377V30.7828H124.174C123.389 30.7828 122.973 31.0739 122.973 31.5972V31.8036C122.973 32.3269 123.319 32.5775 123.923 32.5775C124.598 32.5775 125.165 32.3011 125.165 31.6377H125.169Z" fill="#002169"/>
<path d="M128.976 25.3507V25.0486C128.976 24.47 129.333 24.0425 130.162 24.0425C130.992 24.0425 131.349 24.47 131.349 25.0486V25.3507C131.349 25.9293 130.992 26.3568 130.162 26.3568C129.333 26.3568 128.976 25.9293 128.976 25.3507ZM129.142 27.1307H131.183V33.8305H129.142V27.1307Z" fill="#002169"/>
<path d="M132.926 31.8441V24.1641H134.968V32.2458H135.878V33.8341H134.953C133.56 33.8341 132.926 33.1302 132.926 31.8478V31.8441Z" fill="#002169"/>
<path d="M136.733 31.8846C136.733 30.3516 137.92 29.6219 139.84 29.6219H140.986V29.1649C140.986 28.4611 140.64 28.0188 139.785 28.0188C138.93 28.0188 138.543 28.4316 138.226 28.8738L137.01 27.7977C137.588 26.9427 138.417 26.4194 139.936 26.4194C141.977 26.4194 143.028 27.3592 143.028 29.0691V32.2421H143.702V33.8304H142.571C141.896 33.8304 141.399 33.403 141.233 32.7396L141.192 32.559H141.111C140.89 33.4988 140.09 33.9926 138.985 33.9926C137.537 33.9926 136.737 33.1376 136.737 31.881L136.733 31.8846ZM140.982 31.6377V30.7828H139.987C139.202 30.7828 138.786 31.0739 138.786 31.5972V31.8036C138.786 32.3269 139.132 32.5775 139.737 32.5775C140.411 32.5775 140.979 32.3011 140.979 31.6377H140.982Z" fill="#002169"/>
<path d="M145.01 26.5853H147.052V27.8125H147.133C147.395 27.0533 148.003 26.4194 149.149 26.4194C150.627 26.4194 151.412 27.4697 151.412 29.2902V33.8304H149.37V29.4561C149.37 28.5311 149.108 28.0778 148.364 28.0778C147.701 28.0778 147.052 28.4242 147.052 29.1391V33.8304H145.01V26.5853Z" fill="#002169"/>
<path d="M152.808 30.2005C152.808 27.7425 153.759 26.4195 155.594 26.4195C156.534 26.4195 157.334 26.998 157.54 27.7977H157.61V24.1604H159.652V33.8268H157.61V32.6143H157.54C157.334 33.3993 156.534 33.9926 155.594 33.9926C153.759 33.9926 152.808 32.6549 152.808 30.1968V30.2005ZM157.61 31.2766V29.1392C157.61 28.4758 157.043 28.0778 156.272 28.0778C155.502 28.0778 154.935 28.6711 154.935 29.5814V30.8381C154.935 31.7483 155.502 32.3416 156.272 32.3416C157.043 32.3416 157.61 31.9399 157.61 31.2803V31.2766Z" fill="#002169"/>
<path d="M164.505 24.1641H169.06C170.855 24.1641 171.986 25.4207 171.986 27.2412C171.986 29.0617 170.855 30.3184 169.06 30.3184H166.602V33.8304H164.505V24.1641ZM168.81 28.4979C169.429 28.4979 169.816 28.1662 169.816 27.5471V26.939C169.816 26.3199 169.429 25.9883 168.81 25.9883H166.602V28.5016H168.81V28.4979Z" fill="#002169"/>
<path d="M172.882 30.2005C172.882 27.8677 174.153 26.4194 176.276 26.4194C178.399 26.4194 179.67 27.8677 179.67 30.2005C179.67 32.5332 178.399 33.9963 176.276 33.9963C174.153 33.9963 172.882 32.5332 172.882 30.2005ZM177.547 30.9449V29.4671C177.547 28.5569 177.079 28.0336 176.276 28.0336C175.472 28.0336 175.008 28.5569 175.008 29.4671V30.9449C175.008 31.8552 175.476 32.3785 176.276 32.3785C177.076 32.3785 177.547 31.8552 177.547 30.9449Z" fill="#002169"/>
<path d="M180.433 32.6991L181.634 31.4866C182.146 32.0541 182.766 32.4116 183.55 32.4116C184.335 32.4116 184.627 32.15 184.627 31.7225C184.627 31.365 184.405 31.1844 183.897 31.1144L183.112 31.0186C181.468 30.8122 180.669 30.0936 180.669 28.7816C180.669 27.3886 181.759 26.4231 183.484 26.4231C185.002 26.4231 185.706 26.8358 186.436 27.5545L185.264 28.7559C184.807 28.2989 184.203 28.0114 183.595 28.0114C182.906 28.0114 182.629 28.2583 182.629 28.6195C182.629 29.0064 182.795 29.2128 183.388 29.2939L184.203 29.4045C185.776 29.6108 186.591 30.3294 186.591 31.5861C186.591 32.9791 185.349 33.9999 183.484 33.9999C182.091 33.9999 181.181 33.5319 180.433 32.7027V32.6991Z" fill="#002169"/>
<path d="M104.723 4.21974H109.879V4.32293C108.029 4.63986 106.68 6.40509 106.68 9.497V14.6895C106.68 16.6464 107.649 17.7188 109.772 17.7188H111.792V15.0875H109.835V7.87918C109.835 5.81914 110.867 4.5551 112.717 4.26028V1.6106H104.72V4.21974H104.723Z" fill="#FE3B1F"/>
<path d="M121.303 12.9869C121.303 14.5421 120.736 15.3234 119.306 15.3234C117.876 15.3234 117.308 14.5458 117.308 12.9869V5.62382H114.154V12.3789C114.154 16.252 115.543 17.9767 119.309 17.9767C123.076 17.9767 124.465 16.252 124.465 12.3789V1.6106H121.311V12.9869H121.303Z" fill="#FE3B1F"/>
<path d="M132.422 10.3592L131.559 10.2523C130.656 10.1491 130.045 9.76954 130.045 9.0546C130.045 8.42442 130.656 7.98219 131.559 7.98219C132.462 7.98219 133.199 8.31755 134.043 9.1799L136.063 7.37045C135.093 6.08798 133.601 5.37305 131.581 5.37305C129.16 5.37305 127.141 6.55232 127.141 9.24623C127.141 11.2436 128.276 12.3824 130.907 12.8025L131.559 12.9057C132.886 13.1157 133.262 13.6427 133.262 14.2102C133.262 14.9252 132.569 15.3674 131.64 15.3674C130.38 15.3674 129.389 14.7999 128.504 13.7054L126.507 15.5996C127.664 17.0737 129.241 17.9766 131.555 17.9766C134.334 17.9766 136.162 16.5651 136.162 14.1255C136.162 12.0433 135.068 10.6945 132.418 10.3592H132.422Z" fill="#FE3B1F"/>
<path d="M160.3 12.8873V10.3555C160.3 8.80036 159.608 8.01909 158.174 8.01909C156.74 8.01909 156.11 8.81879 156.11 10.374V10.4808H158.237V12.8357H157.92C156.91 12.8357 156.132 13.6133 156.132 14.6452V15.2938H158.067V17.715H155.775C154.113 17.715 153.228 16.8121 153.228 15.5886V15.5259C153.228 14.1808 154.301 12.8983 155.815 12.7509V12.6256H152.956V10.4808C152.956 7.72427 154.507 5.36572 158.174 5.36572C161.841 5.36572 163.33 7.09041 163.33 10.9636V13.3221C163.33 14.6046 163.709 15.2348 164.76 15.2348C165.662 15.2348 166.609 14.752 166.609 13.7607V5.62369H169.764V17.7223H166.609V15.8502H166.484C166.042 17.07 165.139 17.9766 163.477 17.9766C161.413 17.9766 160.3 16.462 160.3 13.8528V12.891V12.8873Z" fill="#FE3B1F"/>
<path d="M166.93 1.61045H160.304V4.14958L166.742 4.2196C168.699 4.2196 169.771 3.18404 169.771 1.05766V0H166.93V1.61045Z" fill="#FE3B1F"/>
<path d="M185.076 4.21974H189.808V4.32293C187.958 4.63986 186.609 6.40509 186.609 9.497V14.6895C186.609 16.6464 187.578 17.7188 189.701 17.7188H191.721V15.0875H189.764V7.87918C189.764 5.81914 190.796 4.5551 192.646 4.26028V1.6106H185.073V4.21974H185.076Z" fill="#FE3B1F"/>
<path d="M200.963 5.37305C199.047 5.37305 198.037 6.40491 197.599 7.64684H197.473V5.62733H194.319V17.7223H197.473V9.91694C197.473 8.69713 198.63 8.10749 199.766 8.10749C201.092 8.10749 201.553 8.88508 201.553 10.4624V17.7223H204.707V10.0422C204.707 7.07563 203.403 5.37305 200.963 5.37305Z" fill="#FE3B1F"/>
<path d="M214.344 5.62378V12.9869C214.344 14.5421 213.777 15.3233 212.347 15.3233C210.917 15.3233 210.283 14.5236 210.283 12.9685V12.8616H212.41V10.5067H212.093C211.083 10.5067 210.305 9.72913 210.305 8.69727V8.04867H212.24V5.62746H209.948C208.286 5.62746 207.401 6.53035 207.401 7.75385V7.81649C207.401 9.16161 208.474 10.4441 209.988 10.5915V10.7168H209.778C208.179 10.7168 207.129 11.7081 207.129 13.4549V13.6429C207.129 16.3994 209.023 17.9767 212.347 17.9767C216.113 17.9767 217.503 16.252 217.503 12.3788V5.62378H214.348H214.344Z" fill="#FE3B1F"/>
<path d="M179.5 5.62378V12.9869C179.5 14.5421 178.933 15.3233 177.503 15.3233C176.073 15.3233 175.439 14.5236 175.439 12.9685V12.8616H177.566V10.5067H177.249C176.239 10.5067 175.461 9.72913 175.461 8.69727V8.04867H177.396V5.62746H175.104C173.442 5.62746 172.557 6.53035 172.557 7.75385V7.81649C172.557 9.16161 173.63 10.4441 175.145 10.5915V10.7168H174.934C173.335 10.7168 172.285 11.7081 172.285 13.4549V13.6429C172.285 16.3994 174.179 17.9767 177.503 17.9767C181.269 17.9767 182.659 16.252 182.659 12.3788V5.62378H179.504H179.5Z" fill="#FE3B1F"/>
<path d="M179.5 4.21974H183.466V1.6106H182.106C180.665 1.6106 179.5 2.77882 179.5 4.21606V4.21974Z" fill="#FE3B1F"/>
<path d="M148.824 5.62354H145.67V9.71046L148.824 8.8518V5.62354Z" fill="#FE3B1F"/>
<path d="M151.039 9.08029L143.389 11.1661V12.6329H145.67V12.9866C145.67 14.5418 145.102 15.3231 143.673 15.3231C142.243 15.3231 141.675 14.5455 141.675 12.9866V5.62354H138.521V12.3786C138.521 16.2518 139.91 17.9764 143.676 17.9764C147.443 17.9764 148.755 16.3181 148.817 12.6365H151.043V9.08397L151.039 9.08029Z" fill="#FE3B1F"/>
<path d="M96.6675 1.61035H0L64.4437 33.8341C69.9642 19.0047 81.8381 7.13084 96.6675 1.61404V1.61035Z" fill="#C3C5C6"/>
<path d="M58.4884 12.0101L51.5565 1.61035H0L54.1583 17.8586C57.6297 18.8978 60.4969 15.0246 58.4847 12.0101H58.4884Z" fill="#002169"/>
<path d="M96.6674 1.61035H51.5564L58.4883 12.0101L96.6674 1.61035Z" fill="#FE3B1F"/>
<path d="M54.1582 17.8586L0 1.61035L64.4437 33.8341L54.1582 17.8586Z" fill="#9EA1A2"/>
</svg>
