<svg width="218" height="34" viewBox="0 0 218 34" fill="none" xmlns="http://www.w3.org/2000/svg">
<path d="M107.583 26.0254H104.971V24.165H112.302V26.0254H109.69V33.8272H107.588V26.0254H107.583Z" fill="white"/>
<path d="M190.826 24.165H188.778V27.042L190.826 26.4893V24.165Z" fill="white"/>
<path d="M192.172 28.7544V26.6226L187.571 27.871V28.7494H188.783V31.7102C188.783 33.092 189.53 33.8223 190.94 33.8223H192.172V32.2333H190.826V28.7445H192.172V28.7544Z" fill="white"/>
<path d="M113.544 24.165H115.592V27.8167H115.676C115.938 27.0568 116.547 26.4251 117.694 26.4251C119.174 26.4251 119.965 27.4762 119.965 29.2971V33.8371H117.917V29.4649C117.917 28.5421 117.655 28.0881 116.908 28.0881C116.245 28.0881 115.592 28.4336 115.592 29.1491V33.842H113.544V24.1749V24.165Z" fill="white"/>
<path d="M121.202 31.8832C121.202 30.3534 122.389 29.6182 124.313 29.6182H125.461V29.1642C125.461 28.4585 125.115 28.0193 124.259 28.0193C123.403 28.0193 123.012 28.4338 122.696 28.873L121.479 27.7972C122.058 26.9435 122.889 26.4155 124.412 26.4155C126.46 26.4155 127.509 27.3531 127.509 29.0655V32.2385H128.187V33.8225H127.054C126.376 33.8225 125.877 33.3932 125.713 32.732L125.674 32.5543H125.59C125.367 33.4919 124.566 33.9903 123.458 33.9903C122.003 33.9903 121.202 33.1366 121.202 31.8782V31.8832ZM125.461 31.6364V30.7827H124.467C123.68 30.7827 123.265 31.0739 123.265 31.597V31.8042C123.265 32.3273 123.611 32.579 124.219 32.579C124.897 32.579 125.466 32.3026 125.466 31.6414L125.461 31.6364Z" fill="white"/>
<path d="M129.275 25.3497V25.0438C129.275 24.4664 129.636 24.0371 130.463 24.0371C131.289 24.0371 131.65 24.4664 131.65 25.0438V25.3497C131.65 25.9271 131.289 26.3564 130.463 26.3564C129.636 26.3564 129.275 25.9271 129.275 25.3497ZM129.444 27.1312H131.492V33.8276H129.444V27.1312V27.1312Z" fill="white"/>
<path d="M133.238 31.8434V24.165H135.286V32.2432H136.201V33.8272H135.276C133.881 33.8272 133.243 33.1215 133.243 31.8385L133.238 31.8434Z" fill="white"/>
<path d="M137.057 31.8832C137.057 30.3534 138.244 29.6182 140.169 29.6182H141.316V29.1642C141.316 28.4585 140.97 28.0193 140.114 28.0193C139.258 28.0193 138.868 28.4338 138.551 28.873L137.334 27.7972C137.913 26.9435 138.744 26.4155 140.268 26.4155C142.316 26.4155 143.364 27.3531 143.364 29.0655V32.2385H144.042V33.8225H142.909C142.232 33.8225 141.732 33.3932 141.569 32.732L141.529 32.5543H141.445C141.222 33.4919 140.421 33.9903 139.313 33.9903C137.858 33.9903 137.057 33.1366 137.057 31.8782V31.8832ZM141.316 31.6364V30.7827H140.322C139.535 30.7827 139.12 31.0739 139.12 31.597V31.8042C139.12 32.3273 139.466 32.579 140.075 32.579C140.752 32.579 141.321 32.3026 141.321 31.6414L141.316 31.6364Z" fill="white"/>
<path d="M145.348 26.5833H147.396V27.812H147.48C147.743 27.0521 148.351 26.4204 149.499 26.4204C150.978 26.4204 151.769 27.4715 151.769 29.2924V33.8323H149.721V29.4602C149.721 28.5374 149.459 28.0834 148.712 28.0834C148.049 28.0834 147.396 28.4288 147.396 29.1444V33.8373H145.348V26.5931V26.5833Z" fill="white"/>
<path d="M153.164 30.2002C153.164 27.7427 154.119 26.4202 155.959 26.4202C156.899 26.4202 157.701 26.9976 157.909 27.8019H157.978V24.165H160.026V33.8321H157.978V32.6182H157.909C157.701 33.4028 156.899 33.9999 155.959 33.9999C154.119 33.9999 153.164 32.6626 153.164 30.2051V30.2002ZM157.978 31.276V29.1392C157.978 28.478 157.409 28.0783 156.637 28.0783C155.865 28.0783 155.297 28.6704 155.297 29.5833V30.8368C155.297 31.7497 155.865 32.3418 156.637 32.3418C157.409 32.3418 157.978 31.9421 157.978 31.2809V31.276Z" fill="white"/>
<path d="M164.889 24.1653H169.455C171.251 24.1653 172.389 25.4188 172.389 27.2397C172.389 29.0606 171.256 30.314 169.455 30.314H166.991V33.8275H164.889V24.1604V24.1653ZM169.203 28.498C169.826 28.498 170.212 28.1674 170.212 27.5456V26.9386C170.212 26.3169 169.826 25.9862 169.203 25.9862H166.991V28.498H169.203V28.498Z" fill="white"/>
<path d="M173.284 30.2004C173.284 27.8712 174.555 26.4204 176.687 26.4204C178.82 26.4204 180.091 27.8712 180.091 30.2004C180.091 32.5296 178.82 33.9952 176.687 33.9952C174.555 33.9952 173.284 32.5345 173.284 30.2004ZM177.959 30.9455V29.4701C177.959 28.5621 177.489 28.0341 176.687 28.0341C175.886 28.0341 175.416 28.5571 175.416 29.4701V30.9455C175.416 31.8535 175.886 32.3815 176.687 32.3815C177.489 32.3815 177.959 31.8585 177.959 30.9455Z" fill="white"/>
<path d="M180.853 32.6974L182.055 31.4835C182.565 32.051 183.188 32.4063 183.979 32.4063C184.771 32.4063 185.058 32.1447 185.058 31.7154C185.058 31.3552 184.835 31.1775 184.326 31.1084L183.539 31.0097C181.892 30.8025 181.09 30.0869 181.09 28.7743C181.09 27.3827 182.184 26.4155 183.91 26.4155C185.434 26.4155 186.136 26.83 186.869 27.5456L185.691 28.7447C185.236 28.2907 184.628 27.9996 184.019 27.9996C183.326 27.9996 183.049 28.2463 183.049 28.6065C183.049 28.9914 183.218 29.1987 183.811 29.2826L184.628 29.3912C186.206 29.5984 187.022 30.3139 187.022 31.5723C187.022 32.9639 185.775 33.9854 183.91 33.9854C182.515 33.9854 181.6 33.5166 180.853 32.6875V32.6974Z" fill="white"/>
<path d="M104.966 4.22418H110.135V4.32781C108.28 4.64363 106.93 6.41025 106.93 9.50431V14.6956C106.93 16.6547 107.899 17.7255 110.031 17.7255H112.055V15.0953H110.091V7.88573C110.091 5.82302 111.125 4.55974 112.98 4.26859V1.61865H104.961V4.22911L104.966 4.22418Z" fill="white"/>
<path d="M121.588 12.9932C121.588 14.5476 121.019 15.3273 119.584 15.3273C118.149 15.3273 117.581 14.5476 117.581 12.9932V5.63062H114.419V12.3813C114.419 16.2501 115.81 17.9773 119.584 17.9773C123.359 17.9773 124.749 16.2501 124.749 12.3813V1.61377H121.588V12.9883V12.9932Z" fill="white"/>
<path d="M132.733 10.363L131.868 10.2593C130.962 10.1557 130.349 9.77573 130.349 9.0602C130.349 8.42855 130.962 7.98937 131.868 7.98937C132.773 7.98937 133.51 8.32493 134.356 9.1885L136.379 7.37746C135.41 6.09444 133.911 5.37891 131.887 5.37891C129.463 5.37891 127.435 6.5583 127.435 9.24772C127.435 11.2463 128.573 12.3813 131.21 12.8007L131.863 12.9043C133.193 13.1165 133.569 13.6396 133.569 14.2071C133.569 14.9226 132.872 15.3618 131.947 15.3618C130.68 15.3618 129.691 14.7943 128.805 13.6988L126.802 15.5937C127.959 17.0643 129.542 17.9723 131.863 17.9723C134.648 17.9723 136.483 16.561 136.483 14.1232C136.483 12.0408 135.385 10.6936 132.728 10.358L132.733 10.363Z" fill="white"/>
<path d="M160.679 12.8894V10.3579C160.679 8.8035 159.981 8.02382 158.552 8.02382C157.122 8.02382 156.484 8.82324 156.484 10.3777V10.4862H158.616V12.8401H158.299C157.285 12.8401 156.509 13.6198 156.509 14.6511V15.2976H158.448V17.7156H156.147C154.48 17.7156 153.595 16.8125 153.595 15.5937V15.5295C153.595 14.1823 154.668 12.9042 156.187 12.7562V12.6279H153.318V10.4813C153.318 7.72774 154.871 5.36401 158.547 5.36401C162.222 5.36401 163.711 7.09116 163.711 10.96V13.3188C163.711 14.6018 164.092 15.2334 165.146 15.2334C166.051 15.2334 167.001 14.7498 167.001 13.7629V5.62062H170.162V17.7156H167.001V15.8453H166.873C166.427 17.0642 165.522 17.9722 163.855 17.9722C161.787 17.9722 160.669 16.4572 160.669 13.8468V12.8845L160.679 12.8894Z" fill="white"/>
<path d="M167.323 1.61365H160.679V4.15502L167.135 4.22411C169.094 4.22411 170.172 3.18782 170.172 1.06096V0H167.328V1.60872L167.323 1.61365Z" fill="white"/>
<path d="M185.508 4.22418H190.252V4.32781C188.397 4.64363 187.047 6.41025 187.047 9.50431V14.6956C187.047 16.6547 188.016 17.7255 190.148 17.7255H192.172V15.0953H190.213V7.88573C190.213 5.82302 191.247 4.55974 193.102 4.26859V1.61865H185.513V4.22911L185.508 4.22418Z" fill="white"/>
<path d="M201.433 5.37359C199.513 5.37359 198.499 6.40494 198.059 7.64355H197.93V5.62526H194.769V17.7202H197.93V9.91352C197.93 8.69465 199.088 8.10248 200.23 8.10248C201.561 8.10248 202.021 8.88216 202.021 10.4563V17.7153H205.182V10.0369C205.182 7.07113 203.876 5.36865 201.428 5.36865L201.433 5.37359Z" fill="white"/>
<path d="M214.844 5.63037V12.993C214.844 14.5474 214.275 15.3271 212.84 15.3271C211.406 15.3271 210.772 14.5276 210.772 12.9732V12.8647H212.905V10.5108H212.588C211.574 10.5108 210.797 9.73111 210.797 8.69976V8.05331H212.736V5.63531H210.436C208.769 5.63531 207.883 6.53836 207.883 7.75723V7.82138C207.883 9.16856 208.957 10.4466 210.476 10.5947V10.723H210.263C208.66 10.723 207.606 11.7149 207.606 13.4618V13.6493C207.606 16.4028 209.506 17.9819 212.835 17.9819C216.61 17.9819 218 16.2548 218 12.386V5.63531H214.839L214.844 5.63037Z" fill="white"/>
<path d="M179.918 5.63037V12.993C179.918 14.5474 179.349 15.3271 177.914 15.3271C176.48 15.3271 175.847 14.5276 175.847 12.9732V12.8647H177.979V10.5108H177.662C176.648 10.5108 175.871 9.73111 175.871 8.69976V8.05331H177.81V5.63531H175.51C173.843 5.63531 172.957 6.53836 172.957 7.75723V7.82138C172.957 9.16856 174.031 10.4466 175.55 10.5947V10.723H175.337C173.734 10.723 172.68 11.7149 172.68 13.4618V13.6493C172.68 16.4028 174.58 17.9819 177.909 17.9819C181.684 17.9819 183.074 16.2548 183.074 12.386V5.63531H179.913L179.918 5.63037Z" fill="white"/>
<path d="M179.918 4.22418H183.89V1.61865H182.53C181.085 1.61865 179.918 2.78324 179.918 4.22418Z" fill="white"/>
<path d="M149.172 5.63062H146.011V9.71162L149.172 8.85298V5.63062Z" fill="white"/>
<path d="M151.393 9.08472L143.726 11.1672V12.6328H146.011V12.9881C146.011 14.5425 145.442 15.3222 144.008 15.3222C142.573 15.3222 142.004 14.5425 142.004 12.9881V5.62549H138.843V12.3762C138.843 16.245 140.233 17.9721 144.008 17.9721C147.782 17.9721 149.098 16.3141 149.162 12.6328H151.393V9.07978V9.08472Z" fill="white"/>
<path d="M59.8342 16.5022C59.1119 17.8494 57.8504 18.7672 56.4158 19.0633L65.1324 32.5647C69.9805 20.4944 79.0137 10.5608 90.4512 4.54541L60.22 12.7617C60.5911 13.9954 60.4723 15.3179 59.8391 16.5022H59.8342Z" fill="white"/>
<path d="M53.0469 1.61382L59.5769 11.3796C59.6462 11.4832 59.7006 11.5918 59.7649 11.7004L96.8972 1.60889H53.0518L53.0469 1.61382Z" fill="white"/>
<path d="M53.9621 18.9497L5.95129 4.57983L16.152 9.66752L64.5981 33.8328L55.1197 19.1471C54.7338 19.1224 54.343 19.0632 53.9621 18.9497V18.9497Z" fill="white"/>
<path d="M58.6271 12.0117L51.6765 1.61426H0L54.2885 17.8593C57.7663 18.9005 60.6405 15.0268 58.6271 12.0117Z" fill="white"/>
</svg>
