<svg width="226" height="35" viewBox="0 0 226 35" fill="none" xmlns="http://www.w3.org/2000/svg">
<path d="M111.531 26.4966H108.823V24.6025H116.423V26.4966H113.715V34.4396H111.536V26.4966H111.531Z" fill="white"/>
<path d="M197.829 24.6025H195.706V27.5316L197.829 26.9689V24.6025Z" fill="white"/>
<path d="M199.224 29.2749V27.1045L194.454 28.3756V29.2699H195.711V32.2843C195.711 33.691 196.485 34.4346 197.947 34.4346H199.224V32.8168H197.829V29.2648H199.224V29.2749Z" fill="white"/>
<path d="M117.711 24.6025H119.834V28.3203H119.921C120.193 27.5466 120.824 26.9036 122.013 26.9036C123.547 26.9036 124.367 27.9737 124.367 29.8276V34.4497H122.244V29.9984C122.244 29.0589 121.972 28.5967 121.198 28.5967C120.511 28.5967 119.834 28.9483 119.834 29.6768V34.4547H117.711V24.6126V24.6025Z" fill="white"/>
<path d="M125.65 32.4605C125.65 30.903 126.88 30.1544 128.875 30.1544H130.065V29.6922C130.065 28.9738 129.706 28.5266 128.819 28.5266C127.932 28.5266 127.527 28.9486 127.198 29.3958L125.937 28.3005C126.537 27.4314 127.398 26.8938 128.978 26.8938C131.101 26.8938 132.188 27.8484 132.188 29.5917V32.8222H132.891V34.4349H131.717C131.014 34.4349 130.496 33.9978 130.327 33.3246L130.286 33.1437H130.199C129.968 34.0983 129.137 34.6057 127.988 34.6057C126.48 34.6057 125.65 33.7366 125.65 32.4554V32.4605ZM130.065 32.2093V31.3401H129.034C128.219 31.3401 127.788 31.6365 127.788 32.1691V32.3801C127.788 32.9126 128.147 33.1688 128.778 33.1688C129.481 33.1688 130.07 32.8875 130.07 32.2143L130.065 32.2093Z" fill="white"/>
<path d="M134.019 25.8086V25.4971C134.019 24.9093 134.394 24.4722 135.25 24.4722C136.107 24.4722 136.481 24.9093 136.481 25.4971V25.8086C136.481 26.3964 136.107 26.8335 135.25 26.8335C134.394 26.8335 134.019 26.3964 134.019 25.8086ZM134.194 27.6223H136.317V34.4399H134.194V27.6223V27.6223Z" fill="white"/>
<path d="M138.127 32.42V24.6025H140.251V32.8269H141.199V34.4396H140.24C138.794 34.4396 138.132 33.7212 138.132 32.4149L138.127 32.42Z" fill="white"/>
<path d="M142.087 32.4605C142.087 30.903 143.317 30.1544 145.312 30.1544H146.502V29.6922C146.502 28.9738 146.143 28.5266 145.256 28.5266C144.369 28.5266 143.964 28.9486 143.635 29.3958L142.374 28.3005C142.974 27.4314 143.835 26.8938 145.415 26.8938C147.538 26.8938 148.625 27.8484 148.625 29.5917V32.8222H149.328V34.4349H148.154C147.451 34.4349 146.933 33.9978 146.764 33.3246L146.723 33.1437H146.636C146.405 34.0983 145.574 34.6057 144.425 34.6057C142.917 34.6057 142.087 33.7366 142.087 32.4554V32.4605ZM146.502 32.2093V31.3401H145.471C144.656 31.3401 144.225 31.6365 144.225 32.1691V32.3801C144.225 32.9126 144.584 33.1688 145.215 33.1688C145.918 33.1688 146.507 32.8875 146.507 32.2143L146.502 32.2093Z" fill="white"/>
<path d="M150.682 27.0645H152.805V28.3155H152.892C153.164 27.5418 153.795 26.8987 154.985 26.8987C156.518 26.8987 157.339 27.9688 157.339 29.8227V34.4448H155.216V29.9935C155.216 29.054 154.944 28.5918 154.169 28.5918C153.482 28.5918 152.805 28.9435 152.805 29.672V34.4498H150.682V27.0745V27.0645Z" fill="white"/>
<path d="M158.785 30.747C158.785 28.245 159.775 26.8985 161.683 26.8985C162.657 26.8985 163.488 27.4863 163.703 28.3053H163.775V24.6025H165.898V34.4447H163.775V33.2087H163.703C163.488 34.0076 162.657 34.6155 161.683 34.6155C159.775 34.6155 158.785 33.254 158.785 30.752V30.747ZM163.775 31.8422V29.6668C163.775 28.9936 163.185 28.5866 162.385 28.5866C161.585 28.5866 160.996 29.1895 160.996 30.119V31.3951C160.996 32.3245 161.585 32.9274 162.385 32.9274C163.185 32.9274 163.775 32.5204 163.775 31.8472V31.8422Z" fill="white"/>
<path d="M170.94 24.6027H175.673C177.535 24.6027 178.715 25.8788 178.715 27.7327C178.715 29.5865 177.54 30.8627 175.673 30.8627H173.119V34.4398H170.94V24.5977V24.6027ZM175.412 29.0138C176.058 29.0138 176.458 28.6772 176.458 28.0442V27.4262C176.458 26.7932 176.058 26.4566 175.412 26.4566H173.119V29.0138H175.412V29.0138Z" fill="white"/>
<path d="M179.643 30.7471C179.643 28.3758 180.961 26.8987 183.171 26.8987C185.382 26.8987 186.7 28.3758 186.7 30.7471C186.7 33.1185 185.382 34.6106 183.171 34.6106C180.961 34.6106 179.643 33.1235 179.643 30.7471ZM184.489 31.5057V30.0035C184.489 29.0791 184.002 28.5415 183.171 28.5415C182.341 28.5415 181.853 29.0741 181.853 30.0035V31.5057C181.853 32.4302 182.341 32.9677 183.171 32.9677C184.002 32.9677 184.489 32.4352 184.489 31.5057Z" fill="white"/>
<path d="M187.49 33.2894L188.736 32.0535C189.264 32.6313 189.91 32.993 190.731 32.993C191.552 32.993 191.849 32.7267 191.849 32.2896C191.849 31.9229 191.618 31.742 191.09 31.6717L190.275 31.5712C188.567 31.3602 187.736 30.6317 187.736 29.2953C187.736 27.8785 188.869 26.8938 190.659 26.8938C192.239 26.8938 192.967 27.3158 193.726 28.0443L192.505 29.2652C192.034 28.8029 191.403 28.5065 190.772 28.5065C190.054 28.5065 189.767 28.7577 189.767 29.1245C189.767 29.5164 189.941 29.7274 190.557 29.8128L191.403 29.9233C193.039 30.1343 193.885 30.8628 193.885 32.1439C193.885 33.5607 192.593 34.6007 190.659 34.6007C189.213 34.6007 188.264 34.1234 187.49 33.2794V33.2894Z" fill="white"/>
<path d="M108.818 4.30065H114.177V4.40615C112.254 4.72769 110.854 6.52631 110.854 9.67639V14.9617C110.854 16.9562 111.859 18.0465 114.069 18.0465H116.167V15.3686H114.131V8.0285C114.131 5.92844 115.203 4.64229 117.126 4.34587V1.64795H108.812V4.30567L108.818 4.30065Z" fill="white"/>
<path d="M126.05 13.2283C126.05 14.8109 125.46 15.6047 123.972 15.6047C122.485 15.6047 121.895 14.8109 121.895 13.2283V5.7324H118.618V12.6053C118.618 16.5442 120.059 18.3026 123.972 18.3026C127.886 18.3026 129.327 16.5442 129.327 12.6053V1.64282H126.05V13.2233V13.2283Z" fill="white"/>
<path d="M137.604 10.5506L136.707 10.4451C135.768 10.3396 135.132 9.95275 135.132 9.22426C135.132 8.58118 135.768 8.13404 136.707 8.13404C137.645 8.13404 138.409 8.47568 139.286 9.35489L141.384 7.51106C140.379 6.20481 138.825 5.47632 136.727 5.47632C134.214 5.47632 132.112 6.67707 132.112 9.41518C132.112 11.4499 133.291 12.6055 136.025 13.0325L136.702 13.138C138.081 13.354 138.471 13.8866 138.471 14.4644C138.471 15.1928 137.748 15.64 136.789 15.64C135.476 15.64 134.45 15.0622 133.532 13.9469L131.455 15.8761C132.655 17.3733 134.296 18.2977 136.702 18.2977C139.589 18.2977 141.492 16.8608 141.492 14.3789C141.492 12.2588 140.353 10.8872 137.599 10.5456L137.604 10.5506Z" fill="white"/>
<path d="M166.575 13.1229V10.5455C166.575 8.96295 165.852 8.16915 164.37 8.16915C162.888 8.16915 162.226 8.98304 162.226 10.5656V10.6761H164.437V13.0726H164.109C163.057 13.0726 162.252 13.8664 162.252 14.9165V15.5746H164.262V18.0364H161.878C160.149 18.0364 159.231 17.117 159.231 15.876V15.8107C159.231 14.4392 160.344 13.1379 161.919 12.9872V12.8566H158.944V10.6711C158.944 7.8677 160.554 5.46118 164.365 5.46118C168.175 5.46118 169.719 7.2196 169.719 11.1585V13.56C169.719 14.8662 170.114 15.5093 171.206 15.5093C172.145 15.5093 173.13 15.0169 173.13 14.0121V5.72243H176.407V18.0364H173.13V16.1323H172.996C172.535 17.3732 171.596 18.2976 169.868 18.2976C167.724 18.2976 166.565 16.7553 166.565 14.0975V13.1178L166.575 13.1229Z" fill="white"/>
<path d="M173.463 1.64287H166.575V4.23026L173.268 4.30059C175.299 4.30059 176.417 3.24554 176.417 1.08017V0H173.468V1.63784L173.463 1.64287Z" fill="white"/>
<path d="M192.316 4.30065H197.234V4.40615C195.311 4.72769 193.911 6.52631 193.911 9.67639V14.9617C193.911 16.9562 194.916 18.0465 197.126 18.0465H199.224V15.3686H197.193V8.0285C197.193 5.92844 198.265 4.64229 200.188 4.34587V1.64795H192.321V4.30567L192.316 4.30065Z" fill="white"/>
<path d="M208.825 5.47109C206.835 5.47109 205.783 6.52112 205.327 7.78215H205.194V5.72732H201.916V18.0413H205.194V10.0932C205.194 8.85228 206.394 8.24939 207.578 8.24939C208.958 8.24939 209.435 9.04319 209.435 10.6459V18.0363H212.712V10.2188C212.712 7.19937 211.358 5.46606 208.819 5.46606L208.825 5.47109Z" fill="white"/>
<path d="M222.728 5.73218V13.2281C222.728 14.8106 222.138 15.6044 220.651 15.6044C219.164 15.6044 218.507 14.7906 218.507 13.208V13.0974H220.718V10.701H220.389C219.338 10.701 218.533 9.90717 218.533 8.85714V8.19899H220.543V5.7372H218.158C216.43 5.7372 215.512 6.6566 215.512 7.89755V7.96286C215.512 9.33443 216.625 10.6357 218.199 10.7864V10.917H217.979C216.317 10.917 215.225 11.9268 215.225 13.7054V13.8963C215.225 16.6997 217.194 18.3074 220.646 18.3074C224.559 18.3074 226 16.549 226 12.6101V5.7372H222.723L222.728 5.73218Z" fill="white"/>
<path d="M186.52 5.73218V13.2281C186.52 14.8106 185.931 15.6044 184.443 15.6044C182.956 15.6044 182.3 14.7906 182.3 13.208V13.0974H184.51V10.701H184.182C183.13 10.701 182.325 9.90717 182.325 8.85714V8.19899H184.336V5.7372H181.951C180.223 5.7372 179.305 6.6566 179.305 7.89755V7.96286C179.305 9.33443 180.417 10.6357 181.992 10.7864V10.917H181.771C180.11 10.917 179.017 11.9268 179.017 13.7054V13.8963C179.017 16.6997 180.987 18.3074 184.438 18.3074C188.351 18.3074 189.792 16.549 189.792 12.6101V5.7372H186.515L186.52 5.73218Z" fill="white"/>
<path d="M186.52 4.30065H190.639V1.64795H189.228C187.731 1.64795 186.52 2.83363 186.52 4.30065Z" fill="white"/>
<path d="M154.646 5.73267H151.369V9.88756L154.646 9.01338V5.73267Z" fill="white"/>
<path d="M156.949 9.24916L149 11.3693V12.8615H151.369V13.2232C151.369 14.8058 150.779 15.5996 149.292 15.5996C147.805 15.5996 147.215 14.8058 147.215 13.2232V5.72729H143.938V12.6002C143.938 16.5391 145.379 18.2975 149.292 18.2975C153.205 18.2975 154.569 16.6094 154.636 12.8615H156.949V9.24413V9.24916Z" fill="white"/>
<path d="M62.0299 16.801C61.2811 18.1725 59.9734 19.107 58.4861 19.4085L67.5226 33.1543C72.5486 20.8654 81.9133 10.752 93.7705 4.62769L62.4299 12.9927C62.8146 14.2488 62.6915 15.5952 62.035 16.801H62.0299Z" fill="white"/>
<path d="M54.9935 1.64321L61.7632 11.5858C61.835 11.6913 61.8914 11.8018 61.9581 11.9124L100.453 1.63818H54.9987L54.9935 1.64321Z" fill="white"/>
<path d="M55.9423 19.2929L6.16968 4.66284L16.7448 9.84264L66.9687 34.4454L57.1424 19.4939C56.7424 19.4687 56.3372 19.4084 55.9423 19.2929V19.2929Z" fill="white"/>
<path d="M60.7785 12.2292L53.5729 1.64355H0L56.2808 18.1827C59.8861 19.2428 62.8658 15.2989 60.7785 12.2292Z" fill="white"/>
</svg>
