<svg width="88" height="93" viewBox="0 0 88 93" fill="none" xmlns="http://www.w3.org/2000/svg">
<path d="M52 37.9167C49.6037 37.9167 47.6667 35.9797 47.6667 33.5833V21.6667C47.6667 14.4993 41.834 8.66667 34.6667 8.66667C27.4993 8.66667 21.6667 14.4993 21.6667 21.6667V33.5833C21.6667 35.9797 19.7297 37.9167 17.3333 37.9167C14.937 37.9167 13 35.9797 13 33.5833V21.6667C13 9.71967 22.7197 0 34.6667 0C46.6137 0 56.3333 9.71967 56.3333 21.6667V33.5833C56.3333 35.9797 54.3963 37.9167 52 37.9167Z" fill="#90A4AE"/>
<path d="M59.5833 86.6666H9.75C4.37667 86.6666 0 82.2899 0 76.9166V40.0833C0 34.7099 4.37667 30.3333 9.75 30.3333H59.5833C64.9567 30.3333 69.3333 34.7099 69.3333 40.0833V76.9166C69.3333 82.2899 64.9567 86.6666 59.5833 86.6666Z" fill="#F3D55B"/>
<path d="M34.6667 0C22.7197 0 13 9.71967 13 21.6667V30.3333H21.6667V21.6667C21.6667 14.4993 27.4993 8.66667 34.6667 8.66667V0Z" fill="#7A888D"/>
<path d="M34.6667 30.3333H21.6667H13H9.75C4.37667 30.3333 0 34.7099 0 40.0833V76.9166C0 82.2899 4.37667 86.6666 9.75 86.6666H34.6667V30.3333Z" fill="#F0C419"/>
<path d="M68 93C79.0457 93 88 84.0457 88 73C88 61.9543 79.0457 53 68 53C56.9543 53 48 61.9543 48 73C48 84.0457 56.9543 93 68 93Z" fill="#4FBA6F"/>
<path fill-rule="evenodd" clip-rule="evenodd" d="M63.6311 84C62.8647 84.0014 62.1294 83.7006 61.5887 83.1643L55.8109 77.4601C54.7161 76.341 54.7318 74.5621 55.8461 73.4619C56.9605 72.3617 58.7623 72.3463 59.8958 73.4272L63.6311 77.1135L76.0331 64.8708C76.7584 64.1294 77.8325 63.832 78.8426 64.093C79.8526 64.354 80.6414 65.1328 80.9058 66.13C81.1702 67.1272 80.869 68.1876 80.118 68.9037L65.6736 83.1643C65.1328 83.7006 64.3976 84.0014 63.6311 84Z" fill="#ECF0F1"/>
</svg>
