<svg width="92" height="105" viewBox="0 0 92 105" fill="none" xmlns="http://www.w3.org/2000/svg">
<path d="M42.1489 0C42.1489 3.48899 39.6819 6.31743 36.6387 6.31743C33.5956 6.31743 31.1286 3.48899 31.1286 0H23.844C23.844 3.48899 21.377 6.31743 18.3339 6.31743C15.2907 6.31743 12.8237 3.48899 12.8237 0H0V14.7025C3.04315 14.7025 5.51016 17.5309 5.51016 21.0199C5.51016 24.5089 3.04315 27.3373 0 27.3373V35.6891C3.04315 35.6891 5.51016 38.5176 5.51016 42.0066C5.51016 45.4956 3.04315 48.324 0 48.324V56.6758C3.04315 56.6758 5.51016 59.5042 5.51016 62.9932C5.51016 66.4822 3.04315 69.3107 0 69.3107V77.6625C3.04315 77.6625 5.51016 80.4909 5.51016 83.9799C5.51016 87.4689 3.04315 90.2975 0 90.2975V105H12.8237C12.8237 101.511 15.2907 98.6826 18.3339 98.6826C21.377 98.6826 23.844 101.511 23.844 105H31.1286C31.1286 101.511 33.5956 98.6826 36.6387 98.6826C39.6819 98.6826 42.1489 101.511 42.1489 105H45.7913L51.6941 51.4746L45.7913 0H42.1489Z" fill="#103381"/>
<path d="M91.5825 14.7025V0H78.7588C78.7588 3.48899 76.2918 6.31743 73.2487 6.31743C70.2055 6.31743 67.7385 3.48899 67.7385 0H60.4539C60.4539 3.48899 57.9869 6.31743 54.9438 6.31743C51.9006 6.31743 49.4336 3.48899 49.4336 0H45.7913V105H49.4336C49.4336 101.511 51.9006 98.6826 54.9438 98.6826C57.9869 98.6826 60.4539 101.511 60.4539 105H67.7385C67.7385 101.511 70.2055 98.6826 73.2487 98.6826C76.2918 98.6826 78.7588 101.511 78.7588 105H91.5825V90.2975C88.5394 90.2975 86.0724 87.4691 86.0724 83.9801C86.0724 80.4911 88.5394 77.6627 91.5825 77.6627V69.3109C88.5394 69.3109 86.0724 66.4824 86.0724 62.9934C86.0724 59.5044 88.5394 56.676 91.5825 56.676V48.3242C88.5394 48.3242 86.0724 45.4958 86.0724 42.0068C86.0724 38.5178 88.5394 35.6893 91.5825 35.6893V27.3375C88.5394 27.3375 86.0724 24.5091 86.0724 21.0201C86.0724 17.5309 88.5394 14.7025 91.5825 14.7025Z" fill="#002169"/>
<rect x="15.9197" y="18.252" width="59.7433" height="68.4961" fill="#FE3B1F"/>
<rect x="45.7913" y="18.252" width="29.8717" height="68.4961" fill="black" fill-opacity="0.12"/>
<path d="M37.7666 40.0913V60.972H33.6403L27.0597 50.0015H26.9529V60.972H22.0085V40.0913H26.2059L32.6799 51.021H32.8222V40.0913H37.7666Z" fill="white"/>
<path d="M40.1054 60.972V40.0913H52.911V44.659H45.0498V48.2478H52.1284V52.8155H45.0498V60.972H40.1054Z" fill="white"/>
<path d="M54.2316 44.659V40.0913H70.0608V44.659H64.5828V60.972H59.7095V44.659H54.2316Z" fill="white"/>
<path d="M45.4287 76.856H44.8599V76.3904H46.4564V76.856H45.8876V78.8087H45.4297V76.856H45.4287Z" fill="white"/>
<path d="M63.5559 76.3901H63.1099V77.1102L63.5559 76.9719V76.3901Z" fill="white"/>
<path d="M63.8488 77.5389V77.0054L62.8469 77.3178V77.5377H63.1109V78.2788C63.1109 78.6246 63.2735 78.8074 63.5805 78.8074H63.8488V78.4097H63.5558V77.5365H63.8488V77.5389Z" fill="white"/>
<path d="M46.7269 76.3901H47.1729V77.3041H47.1912C47.2483 77.1139 47.3808 76.9558 47.6308 76.9558C47.9529 76.9558 48.1252 77.2189 48.1252 77.6746V78.8109H47.6792V77.7166C47.6792 77.4857 47.6221 77.372 47.4595 77.372C47.3151 77.372 47.1729 77.4585 47.1729 77.6376V78.8122H46.7269V76.3926V76.3901Z" fill="white"/>
<path d="M48.3943 78.3219C48.3943 77.939 48.6528 77.7549 49.0719 77.7549H49.3218V77.6413C49.3218 77.4647 49.2464 77.3548 49.06 77.3548C48.8737 77.3548 48.7886 77.4585 48.7196 77.5684L48.4546 77.2992C48.5807 77.0855 48.7616 76.9534 49.0934 76.9534C49.5394 76.9534 49.7678 77.188 49.7678 77.6166V78.4108H49.9154V78.8072H49.6687C49.5211 78.8072 49.4123 78.6998 49.3768 78.5343L49.3681 78.4898H49.3498C49.3013 78.7245 49.1268 78.8492 48.8855 78.8492C48.5688 78.8492 48.3943 78.6356 48.3943 78.3206V78.3219ZM49.3218 78.2601V78.0464H49.1053C48.934 78.0464 48.8435 78.1193 48.8435 78.2502V78.3021C48.8435 78.433 48.9189 78.496 49.0514 78.496C49.199 78.496 49.3229 78.4268 49.3229 78.2613L49.3218 78.2601Z" fill="white"/>
<path d="M50.1525 76.6864V76.6099C50.1525 76.4654 50.2311 76.3579 50.411 76.3579C50.5909 76.3579 50.6696 76.4654 50.6696 76.6099V76.6864C50.6696 76.831 50.5909 76.9384 50.411 76.9384C50.2311 76.9384 50.1525 76.831 50.1525 76.6864ZM50.1891 77.1323H50.6351V78.8083H50.1891V77.1323V77.1323Z" fill="white"/>
<path d="M51.0154 78.3119V76.3901H51.4614V78.412H51.6607V78.8084H51.4592C51.1554 78.8084 51.0165 78.6318 51.0165 78.3107L51.0154 78.3119Z" fill="white"/>
<path d="M51.847 78.3219C51.847 77.939 52.1056 77.7549 52.5246 77.7549H52.7746V77.6413C52.7746 77.4647 52.6992 77.3548 52.5128 77.3548C52.3264 77.3548 52.2413 77.4585 52.1724 77.5684L51.9074 77.2992C52.0334 77.0855 52.2144 76.9534 52.5462 76.9534C52.9922 76.9534 53.2206 77.188 53.2206 77.6166V78.4108H53.3681V78.8072H53.1215C52.9739 78.8072 52.8651 78.6998 52.8295 78.5343L52.8209 78.4898H52.8026C52.7541 78.7245 52.5796 78.8492 52.3383 78.8492C52.0216 78.8492 51.847 78.6356 51.847 78.3206V78.3219ZM52.7746 78.2601V78.0464H52.558C52.3868 78.0464 52.2963 78.1193 52.2963 78.2502V78.3021C52.2963 78.433 52.3717 78.496 52.5042 78.496C52.6518 78.496 52.7756 78.4268 52.7756 78.2613L52.7746 78.2601Z" fill="white"/>
<path d="M53.6526 76.9953H54.0986V77.3029H54.1169C54.174 77.1127 54.3065 76.9546 54.5564 76.9546C54.8785 76.9546 55.0509 77.2177 55.0509 77.6734V78.8097H54.6049V77.7154C54.6049 77.4844 54.5478 77.3708 54.3851 77.3708C54.2408 77.3708 54.0986 77.4573 54.0986 77.6364V78.8109H53.6526V76.9978V76.9953Z" fill="white"/>
<path d="M55.3545 77.9007C55.3545 77.2856 55.5624 76.9546 55.9631 76.9546C56.1678 76.9546 56.3423 77.0991 56.3876 77.3004H56.4027V76.3901H56.8487V78.8097H56.4027V78.5059H56.3876C56.3423 78.7022 56.1678 78.8517 55.9631 78.8517C55.5624 78.8517 55.3545 78.517 55.3545 77.9019V77.9007ZM56.4027 78.1699V77.6351C56.4027 77.4696 56.2788 77.3696 56.1107 77.3696C55.9427 77.3696 55.8188 77.5178 55.8188 77.7463V78.06C55.8188 78.2885 55.9427 78.4367 56.1107 78.4367C56.2788 78.4367 56.4027 78.3366 56.4027 78.1711V78.1699Z" fill="white"/>
<path d="M57.9078 76.3902H58.9022C59.2932 76.3902 59.541 76.7039 59.541 77.1596C59.541 77.6154 59.2943 77.9291 58.9022 77.9291H58.3657V78.8085H57.9078V76.3889V76.3902ZM58.8472 77.4746C58.9829 77.4746 59.067 77.3918 59.067 77.2362V77.0843C59.067 76.9287 58.9829 76.8459 58.8472 76.8459H58.3657V77.4746H58.8472V77.4746Z" fill="white"/>
<path d="M59.736 77.9007C59.736 77.3177 60.0128 76.9546 60.4771 76.9546C60.9414 76.9546 61.2183 77.3177 61.2183 77.9007C61.2183 78.4836 60.9414 78.8505 60.4771 78.8505C60.0128 78.8505 59.736 78.4849 59.736 77.9007ZM60.754 78.0872V77.7179C60.754 77.4906 60.6516 77.3585 60.4771 77.3585C60.3026 77.3585 60.2003 77.4894 60.2003 77.7179V78.0872C60.2003 78.3144 60.3026 78.4466 60.4771 78.4466C60.6516 78.4466 60.754 78.3157 60.754 78.0872Z" fill="white"/>
<path d="M61.3842 78.5256L61.6459 78.2218C61.7569 78.3638 61.8926 78.4528 62.065 78.4528C62.2374 78.4528 62.2998 78.3873 62.2998 78.2799C62.2998 78.1897 62.2514 78.1452 62.1404 78.1279L61.9691 78.1032C61.6104 78.0514 61.4359 77.8723 61.4359 77.5437C61.4359 77.1954 61.6739 76.9534 62.0499 76.9534C62.3817 76.9534 62.5347 77.0571 62.6941 77.2362L62.4377 77.5363C62.3386 77.4227 62.2061 77.3498 62.0736 77.3498C61.9228 77.3498 61.8625 77.4116 61.8625 77.5018C61.8625 77.5981 61.8991 77.65 62.0284 77.671L62.2061 77.6981C62.5498 77.75 62.7275 77.9291 62.7275 78.244C62.7275 78.5923 62.456 78.848 62.0499 78.848C61.7461 78.848 61.5468 78.7307 61.3842 78.5232V78.5256Z" fill="white"/>
<path d="M44.8585 71.3987H45.9842V71.4246C45.5803 71.5037 45.2862 71.9459 45.2862 72.7203V74.0196C45.2862 74.5099 45.4973 74.7779 45.9616 74.7779H46.4022V74.1196H45.9745V72.3151C45.9745 71.7989 46.1997 71.4827 46.6037 71.4098V70.7466H44.8574V71.3999L44.8585 71.3987Z" fill="white"/>
<path d="M48.4781 73.5935C48.4781 73.9825 48.3542 74.1777 48.0418 74.1777C47.7294 74.1777 47.6055 73.9825 47.6055 73.5935V71.7507H46.9171V73.4403C46.9171 74.4086 47.2198 74.8409 48.0418 74.8409C48.8637 74.8409 49.1664 74.4086 49.1664 73.4403V70.7454H48.4781V73.5923V73.5935Z" fill="white"/>
<path d="M50.9052 72.9352L50.7166 72.9093C50.5195 72.8833 50.3859 72.7882 50.3859 72.6091C50.3859 72.451 50.5195 72.3411 50.7166 72.3411C50.9138 72.3411 51.0743 72.4251 51.2585 72.6412L51.6991 72.188C51.488 71.8668 51.1616 71.6877 50.721 71.6877C50.1931 71.6877 49.7514 71.9829 49.7514 72.6561C49.7514 73.1563 49.9992 73.4403 50.5734 73.5453L50.7156 73.5713C51.0054 73.6244 51.0872 73.7553 51.0872 73.8973C51.0872 74.0764 50.9353 74.1863 50.7339 74.1863C50.4581 74.1863 50.2427 74.0443 50.0498 73.7701L49.6135 74.2444C49.8656 74.6124 50.2103 74.8397 50.7156 74.8397C51.3221 74.8397 51.7217 74.4865 51.7217 73.8763C51.7217 73.3551 51.4826 73.0179 50.9041 72.934L50.9052 72.9352Z" fill="white"/>
<path d="M56.9908 73.5676V72.934C56.9908 72.5449 56.8389 72.3498 56.5276 72.3498C56.2162 72.3498 56.0773 72.5499 56.0773 72.9389V72.9661H56.5416V73.5552H56.4726C56.2518 73.5552 56.0827 73.7504 56.0827 74.0085V74.1703H56.5049V74.7755H56.004C55.641 74.7755 55.4481 74.5495 55.4481 74.2444V74.2284C55.4481 73.8912 55.6819 73.5713 56.0126 73.5343V73.5021H55.3878V72.9649C55.3878 72.2757 55.7261 71.6841 56.5265 71.6841C57.3269 71.6841 57.6512 72.1164 57.6512 73.0847V73.6751C57.6512 73.9962 57.7341 74.1543 57.9636 74.1543C58.1607 74.1543 58.3675 74.0332 58.3675 73.7862V71.7483H59.0559V74.7755H58.3675V74.3074H58.3395C58.2426 74.6125 58.0454 74.8397 57.6824 74.8397C57.2321 74.8397 56.9886 74.4606 56.9886 73.8072V73.5664L56.9908 73.5676Z" fill="white"/>
<path d="M58.4376 70.7454H56.9908V71.3815L58.3967 71.3988C58.8233 71.3988 59.0581 71.1394 59.0581 70.6071V70.3416H58.4387V70.7442L58.4376 70.7454Z" fill="white"/>
<path d="M62.3976 71.3987H63.4307V71.4246C63.0267 71.5037 62.7326 71.9459 62.7326 72.7203V74.0196C62.7326 74.5099 62.9438 74.7779 63.4081 74.7779H63.8487V74.1196H63.4221V72.3151C63.4221 71.7989 63.6472 71.4827 64.0512 71.4098V70.7466H62.3987V71.3999L62.3976 71.3987Z" fill="white"/>
<path d="M65.8651 71.6865C65.4472 71.6865 65.2263 71.9447 65.1304 72.2547H65.1024V71.7495H64.4141V74.7767H65.1024V72.8228C65.1024 72.5178 65.3545 72.3695 65.6034 72.3695C65.8931 72.3695 65.9933 72.5647 65.9933 72.9587V74.7755H66.6817V72.8537C66.6817 72.1114 66.3973 71.6853 65.8641 71.6853L65.8651 71.6865Z" fill="white"/>
<path d="M68.7856 71.751V73.5937C68.7856 73.9828 68.6618 74.1779 68.3493 74.1779C68.0369 74.1779 67.899 73.9778 67.899 73.5888V73.5616H68.3633V72.9725H68.2944C68.0736 72.9725 67.9044 72.7773 67.9044 72.5192V72.3574H68.3267V71.7522H67.8258C67.4628 71.7522 67.2699 71.9782 67.2699 72.2833V72.2994C67.2699 72.6365 67.5037 72.9564 67.8344 72.9935V73.0256H67.7881C67.4391 73.0256 67.2096 73.2738 67.2096 73.7111V73.758C67.2096 74.4472 67.6233 74.8424 68.3483 74.8424C69.1702 74.8424 69.4729 74.4101 69.4729 73.4418V71.7522H68.7846L68.7856 71.751Z" fill="white"/>
<path d="M61.1802 71.751V73.5937C61.1802 73.9828 61.0563 74.1779 60.7439 74.1779C60.4315 74.1779 60.2936 73.9778 60.2936 73.5888V73.5616H60.7579V72.9725H60.6889C60.4681 72.9725 60.299 72.7773 60.299 72.5192V72.3574H60.7213V71.7522H60.2203C59.8573 71.7522 59.6645 71.9782 59.6645 72.2833V72.2994C59.6645 72.6365 59.8982 72.9564 60.2289 72.9935V73.0256H60.1826C59.8336 73.0256 59.6041 73.2738 59.6041 73.7111V73.758C59.6041 74.4472 60.0178 74.8424 60.7428 74.8424C61.5648 74.8424 61.8675 74.4101 61.8675 73.4418V71.7522H61.1791L61.1802 71.751Z" fill="white"/>
<path d="M61.1802 71.3987H62.0452V70.7466H61.749C61.4344 70.7466 61.1802 71.0381 61.1802 71.3987Z" fill="white"/>
<path d="M54.4849 71.751H53.7965V72.7724L54.4849 72.5575V71.751Z" fill="white"/>
<path d="M54.9686 72.6156L53.2989 73.1368V73.5036H53.7966V73.5925C53.7966 73.9816 53.6727 74.1767 53.3603 74.1767C53.0479 74.1767 52.924 73.9816 52.924 73.5925V71.7498H52.2356V73.4394C52.2356 74.4077 52.5383 74.84 53.3603 74.84C54.1822 74.84 54.4688 74.425 54.4828 73.5036H54.9686V72.6143V72.6156Z" fill="white"/>
<path d="M35.0308 74.4721C34.8735 74.8093 34.5988 75.039 34.2864 75.1131L36.1845 78.4924C37.2402 75.4713 39.2073 72.9851 41.698 71.4795L35.1148 73.5359C35.1956 73.8447 35.1697 74.1757 35.0318 74.4721H35.0308Z" fill="white"/>
<path d="M33.5526 70.7459L34.9746 73.1901C34.9897 73.216 35.0015 73.2432 35.0155 73.2704L43.1015 70.7446H33.5537L33.5526 70.7459Z" fill="white"/>
<path d="M33.752 75.0846L23.2971 71.488L25.5184 72.7614L36.0681 78.8097L34.0041 75.134C33.92 75.1279 33.8349 75.113 33.752 75.0846V75.0846Z" fill="white"/>
<path d="M34.7679 73.3482L33.2543 70.7458H22.0012L33.8231 74.8118C34.5805 75.0724 35.2064 74.1028 34.7679 73.3482Z" fill="white"/>
<path d="M29.2107 27.1131C29.188 26.8849 29.0909 26.7077 28.9194 26.5814C28.7478 26.4551 28.515 26.3919 28.2209 26.3919C28.021 26.3919 27.8523 26.4202 27.7146 26.4767C27.577 26.5314 27.4714 26.6078 27.3979 26.7058C27.3263 26.8039 27.2904 26.9151 27.2904 27.0395C27.2867 27.1432 27.3083 27.2337 27.3555 27.311C27.4045 27.3883 27.4714 27.4552 27.5563 27.5118C27.6411 27.5665 27.7391 27.6146 27.8504 27.656C27.9616 27.6956 28.0804 27.7296 28.2067 27.7578L28.7271 27.8823C28.9797 27.9388 29.2116 28.0142 29.4228 28.1085C29.6339 28.2028 29.8168 28.3187 29.9714 28.4564C30.126 28.594 30.2457 28.7561 30.3306 28.9428C30.4173 29.1294 30.4616 29.3434 30.4635 29.5847C30.4616 29.9392 30.3711 30.2465 30.192 30.5067C30.0148 30.765 29.7584 30.9658 29.4228 31.109C29.0891 31.2504 28.6865 31.3211 28.2152 31.3211C27.7476 31.3211 27.3404 31.2495 26.9935 31.1062C26.6485 30.9629 26.3789 30.7508 26.1847 30.4699C25.9924 30.1871 25.8915 29.8374 25.8821 29.4207H27.067C27.0802 29.6149 27.1358 29.777 27.2339 29.9071C27.3338 30.0353 27.4667 30.1324 27.6326 30.1984C27.8004 30.2625 27.9899 30.2946 28.2011 30.2946C28.4084 30.2946 28.5885 30.2644 28.7412 30.2041C28.8958 30.1437 29.0155 30.0598 29.1004 29.9524C29.1852 29.8449 29.2276 29.7214 29.2276 29.5819C29.2276 29.4518 29.189 29.3425 29.1117 29.2539C29.0363 29.1653 28.925 29.0898 28.778 29.0276C28.6328 28.9654 28.4546 28.9088 28.2435 28.8579L27.6128 28.6996C27.1245 28.5808 26.739 28.3951 26.4562 28.1425C26.1734 27.8898 26.0329 27.5495 26.0348 27.1215C26.0329 26.7709 26.1262 26.4645 26.3148 26.2024C26.5052 25.9404 26.7663 25.7358 27.0981 25.5887C27.4299 25.4417 27.807 25.3682 28.2293 25.3682C28.6592 25.3682 29.0344 25.4417 29.3549 25.5887C29.6773 25.7358 29.928 25.9404 30.1071 26.2024C30.2862 26.4645 30.3786 26.768 30.3843 27.1131H29.2107Z" fill="white"/>
<path d="M34.252 26.457V25.4473H39.0088V26.457H37.2356V31.2391H36.0252V26.457H34.252Z" fill="white"/>
<path d="M43.2682 31.2391H41.956L43.9554 25.4473H45.5334L47.53 31.2391H46.2178L44.767 26.7709H44.7218L43.2682 31.2391ZM43.1862 28.9626H46.2857V29.9184H43.1862V28.9626Z" fill="white"/>
<path d="M51.4126 25.4473H52.9227L54.5177 29.3387H54.5856L56.1806 25.4473H57.6908V31.2391H56.503V27.4694H56.4549L54.9561 31.2109H54.1473L52.6484 27.4552H52.6004V31.2391H51.4126V25.4473Z" fill="white"/>
<path d="M61.8852 31.2391V25.4473H64.1702C64.6095 25.4473 64.9837 25.5312 65.2929 25.699C65.6021 25.865 65.8378 26.0959 65.9999 26.3919C66.164 26.686 66.246 27.0254 66.246 27.41C66.246 27.7946 66.163 28.134 65.9971 28.4281C65.8312 28.7222 65.5908 28.9513 65.276 29.1153C64.963 29.2793 64.584 29.3613 64.1391 29.3613H62.6827V28.38H63.9411C64.1768 28.38 64.371 28.3395 64.5237 28.2584C64.6783 28.1754 64.7933 28.0614 64.8687 27.9162C64.946 27.7692 64.9847 27.6004 64.9847 27.41C64.9847 27.2177 64.946 27.0499 64.8687 26.9066C64.7933 26.7614 64.6783 26.6493 64.5237 26.5701C64.3691 26.489 64.173 26.4485 63.9355 26.4485H63.1097V31.2391H61.8852Z" fill="white"/>
</svg>
