<svg width="472" height="637" viewBox="0 0 472 637" fill="none" xmlns="http://www.w3.org/2000/svg">
<path d="M6.184 613.879C16.4133 614.439 23.3387 614.719 26.96 614.719C27.8187 614.719 28.4907 614.476 28.976 613.991C29.4987 613.468 29.76 612.778 29.76 611.919V606.879H16.88C12.96 606.879 10.104 606.002 8.312 604.247C6.55733 602.455 5.68 599.599 5.68 595.679V593.999C5.68 590.079 6.55733 587.242 8.312 585.487C10.104 583.695 12.96 582.799 16.88 582.799H36.536V590.639H19.12C16.88 590.639 15.76 591.759 15.76 593.999V595.119C15.76 597.359 16.88 598.479 19.12 598.479H29.2C32.8587 598.479 35.5467 599.338 37.264 601.055C38.9813 602.772 39.84 605.46 39.84 609.119V611.919C39.84 615.578 38.9813 618.266 37.264 619.983C35.5467 621.7 32.8587 622.559 29.2 622.559C27.296 622.559 25.28 622.522 23.152 622.447L18 622.223C14.192 622.036 10.2533 621.775 6.184 621.439V613.879ZM63.3556 621.999H43.1956V614.159H48.2356V590.639H43.1956V582.799H63.3556V590.639H58.3156V614.159H63.3556V621.999ZM75.3913 621.999H64.4712L79.3113 582.799H90.5113L105.351 621.999H94.4313L91.9113 614.999H77.9113L75.3913 621.999ZM80.4313 607.719H89.3913L84.9113 594.559L80.4313 607.719ZM141.749 600.159L133.909 614.159H126.069L118.229 600.159V621.999H108.149V582.799H118.789L129.989 603.519L141.189 582.799H151.829V621.999H141.749V600.159ZM205.6 621.439C197.275 622.186 190.368 622.559 184.88 622.559C181.221 622.559 178.533 621.7 176.816 619.983C175.099 618.266 174.24 615.578 174.24 611.919V593.999C174.24 590.079 175.117 587.242 176.872 585.487C178.664 583.695 181.52 582.799 185.44 582.799H205.6V590.639H187.68C185.44 590.639 184.32 591.759 184.32 593.999V611.919C184.32 612.778 184.563 613.468 185.048 613.991C185.571 614.476 186.224 614.719 187.008 614.719C187.792 614.719 188.651 614.719 189.584 614.719C190.517 614.682 191.488 614.644 192.496 614.607C193.504 614.57 194.512 614.532 195.52 614.495C196.565 614.458 197.891 614.383 199.496 614.271C201.139 614.159 203.173 614.028 205.6 613.879V621.439ZM217.087 621.999H206.167L221.007 582.799H232.207L247.047 621.999H236.127L233.607 614.999H219.607L217.087 621.999ZM222.127 607.719H231.087L226.607 594.559L222.127 607.719ZM284.004 621.999H273.364L259.924 598.479V621.999H249.844V582.799H260.484L273.924 606.319V582.799H284.004V621.999ZM324.911 621.999H314.271L300.831 598.479V621.999H290.751V582.799H301.391L314.831 606.319V582.799H324.911V621.999ZM338.657 621.999H327.737L342.577 582.799H353.777L368.617 621.999H357.697L355.177 614.999H341.177L338.657 621.999ZM343.697 607.719H352.657L348.177 594.559L343.697 607.719ZM371.415 582.799H393.815C397.473 582.799 400.161 583.639 401.879 585.319C403.596 586.962 404.455 589.482 404.455 592.879C404.455 595.119 403.969 596.948 402.999 598.367C402.028 599.748 400.833 600.719 399.415 601.279C402.439 602.1 404.492 604.116 405.575 607.327C405.948 608.484 406.135 609.828 406.135 611.359C406.135 615.018 405.276 617.706 403.559 619.423C401.841 621.14 399.153 621.999 395.495 621.999H371.415V582.799ZM396.055 609.679C396.055 607.439 394.935 606.319 392.695 606.319H381.495V614.159H392.695C394.935 614.159 396.055 613.039 396.055 610.799V609.679ZM394.375 593.999C394.375 591.759 393.255 590.639 391.015 590.639H381.495V598.479H391.015C393.255 598.479 394.375 597.359 394.375 595.119V593.999ZM429.653 621.999H409.493V614.159H414.533V590.639H409.493V582.799H429.653V590.639H424.613V614.159H429.653V621.999ZM433.512 613.879C443.741 614.439 450.667 614.719 454.288 614.719C455.147 614.719 455.819 614.476 456.304 613.991C456.827 613.468 457.088 612.778 457.088 611.919V606.879H444.208C440.288 606.879 437.432 606.002 435.64 604.247C433.885 602.455 433.008 599.599 433.008 595.679V593.999C433.008 590.079 433.885 587.242 435.64 585.487C437.432 583.695 440.288 582.799 444.208 582.799H463.864V590.639H446.448C444.208 590.639 443.088 591.759 443.088 593.999V595.119C443.088 597.359 444.208 598.479 446.448 598.479H456.528C460.187 598.479 462.875 599.338 464.592 601.055C466.309 602.772 467.168 605.46 467.168 609.119V611.919C467.168 615.578 466.309 618.266 464.592 619.983C462.875 621.7 460.187 622.559 456.528 622.559C454.624 622.559 452.608 622.522 450.48 622.447L445.328 622.223C441.52 622.036 437.581 621.775 433.512 621.439V613.879Z" fill="#1C1C1C"/>
<path d="M462 236.002C462 360.836 360.982 462.004 236.407 462.004C111.832 462.004 10.8146 360.836 10.8146 236.002C10.8146 111.168 111.832 10 236.407 10C360.982 10 462 111.168 462 236.002Z" stroke="#346751" stroke-width="20" stroke-miterlimit="10"/>
<path d="M265.308 384.56C241.534 392.02 220.037 399.557 201.125 406.684C130.749 391.123 77.7499 383.612 50.3673 381.228C48.9342 378.946 47.0149 376.46 45.6841 374.101C39.0048 362.206 29.9456 351.029 27.0793 338.211C107.789 345.969 187.566 361.491 265.308 384.56V384.56Z" fill="#346751"/>
<path d="M62.3669 392.973C88.1373 396.024 123.786 401.151 165.807 409.534C138.475 421.403 120.177 430.658 112.679 434.58C94.0049 423.198 77.0608 409.186 62.3669 392.973V392.973Z" fill="#346751"/>
<path d="M234.719 470.005C217.213 471.219 199.623 470.168 182.385 466.877C231.597 441.883 320.577 400.481 419.948 383.997C357.352 464.698 244.469 472.005 234.719 470.005Z" fill="#346751"/>
<path d="M435.134 361.038C433.547 364.909 427.303 369.728 425.537 373.394C293.205 393.005 221.571 434.039 171.796 463.879C157.644 458.751 139.679 452.496 125.195 443.524C162.584 419.17 275.419 352.45 446.164 339.58C444.193 347.604 438.282 353.398 435.134 361.038Z" fill="#346751"/>
<path d="M246.518 302.242H226.301L220.594 384.481H252.224L246.518 302.242Z" fill="#346751"/>
<path d="M252.229 384.481H236.414V302.242H246.65L247.265 310.779L252.229 384.481Z" fill="#346751"/>
<path d="M236.408 280.711C149.603 252.255 103.539 330.111 103.539 330.111C103.539 330.111 178.854 366.873 236.408 302.937C293.963 366.847 369.201 330.085 369.201 330.085C369.201 330.085 323.137 252.23 236.408 280.711Z" fill="#346751"/>
<path d="M369.208 330.084C369.208 330.084 302.799 362.488 247.062 313.498C243.274 310.193 239.693 306.657 236.339 302.91V280.71C244.278 278.054 252.467 276.216 260.779 275.224C331.845 266.79 369.208 330.084 369.208 330.084Z" fill="#346751"/>
<path d="M61.5272 238.358C61.5272 238.358 118.877 328.441 236.801 302.96L242.483 288.809C169.599 201.724 61.5272 238.358 61.5272 238.358Z" fill="#346751"/>
<path d="M411.304 238.364C411.304 238.364 354.082 328.268 236.414 303.068V281.944C309.016 203.807 411.304 238.364 411.304 238.364Z" fill="#346751"/>
<path d="M92.306 137.97C92.306 137.97 89.9005 264.328 228.963 295.86L244.471 283.401C228.886 152.531 92.306 137.97 92.306 137.97Z" fill="#346751"/>
<path d="M380.517 137.97C380.517 137.97 382.923 264.328 243.86 295.86L228.454 283.401C243.937 152.531 380.517 137.97 380.517 137.97Z" fill="#346751"/>
<path d="M236.407 49.5061C236.407 49.5061 134.043 166.507 224.968 295.891H247.847C338.747 166.507 236.407 49.5061 236.407 49.5061Z" fill="#346751"/>
</svg>
