<svg width="98" height="17" viewBox="0 0 98 17" fill="none" xmlns="http://www.w3.org/2000/svg">
<path d="M6.328 8.704C6.328 9.648 5.688 10.176 4.6 10.176H2.344V7.168H4.552C5.64 7.168 6.328 7.744 6.328 8.704ZM6.056 4.048C6.056 4.96 5.448 5.44 4.392 5.44H2.344V2.64H4.392C5.448 2.64 6.056 3.152 6.056 4.048ZM8.6 8.976C8.6 7.664 7.704 6.496 6.44 6.272C7.528 5.92 8.344 5.072 8.344 3.712C8.344 2.048 7.048 0.832 4.712 0.832H0.104V12H4.92C7.24 12 8.6 10.752 8.6 8.976ZM9.80925 7.536C9.80925 10.304 11.6013 12.144 13.8413 12.144C15.2493 12.144 16.2573 11.472 16.7853 10.704V12H19.0413V3.136H16.7853V4.4C16.2573 3.664 15.2813 2.992 13.8573 2.992C11.6013 2.992 9.80925 4.768 9.80925 7.536ZM16.7853 7.568C16.7853 9.248 15.6653 10.176 14.4333 10.176C13.2333 10.176 12.0973 9.216 12.0973 7.536C12.0973 5.856 13.2333 4.96 14.4333 4.96C15.6653 4.96 16.7853 5.888 16.7853 7.568ZM20.653 7.568C20.653 10.352 22.477 12.144 25.037 12.144C27.245 12.144 28.733 10.896 29.213 9.008H26.797C26.525 9.808 25.949 10.224 25.021 10.224C23.773 10.224 22.941 9.296 22.941 7.568C22.941 5.84 23.773 4.896 25.021 4.896C25.949 4.896 26.541 5.376 26.797 6.128H29.213C28.733 4.144 27.245 2.992 25.037 2.992C22.477 2.992 20.653 4.784 20.653 7.568ZM30.854 12H33.094V8.224L36.102 12H39.014L35.078 7.584L38.982 3.136H36.07L33.094 6.896V0.16H30.854V12ZM39.6217 7.536C39.6217 10.304 41.4138 12.144 43.6698 12.144C45.0618 12.144 46.0698 11.456 46.5978 10.688V12.064C46.5978 13.712 45.6378 14.416 44.4058 14.416C43.2858 14.416 42.4538 13.888 42.2298 13.088H40.0058C40.2298 15.12 41.9738 16.368 44.4698 16.368C47.3818 16.368 48.8538 14.464 48.8538 12.064V3.136H46.5978V4.4C46.0698 3.632 45.0618 2.992 43.6698 2.992C41.4138 2.992 39.6217 4.768 39.6217 7.536ZM46.5978 7.568C46.5978 9.248 45.4778 10.176 44.2458 10.176C43.0458 10.176 41.9098 9.216 41.9098 7.536C41.9098 5.856 43.0458 4.96 44.2458 4.96C45.4778 4.96 46.5978 5.888 46.5978 7.568ZM53.2815 7.584C53.2815 5.872 54.0815 5.36 55.4095 5.36H56.0015V3.008C54.7695 3.008 53.8415 3.6 53.2815 4.512V3.136H51.0415V12H53.2815V7.584ZM66.0703 7.568C66.0703 4.768 64.0703 2.992 61.5103 2.992C58.9503 2.992 56.9503 4.768 56.9503 7.568C56.9503 10.352 58.8863 12.144 61.4463 12.144C64.0223 12.144 66.0703 10.352 66.0703 7.568ZM59.2223 7.568C59.2223 5.792 60.2943 4.944 61.4783 4.944C62.6623 4.944 63.7663 5.792 63.7663 7.568C63.7663 9.328 62.6303 10.192 61.4463 10.192C60.2463 10.192 59.2223 9.328 59.2223 7.568ZM76.0814 3.136H73.8254V8.016C73.8254 9.44 73.0574 10.208 71.8414 10.208C70.6574 10.208 69.8734 9.44 69.8734 8.016V3.136H67.6334V8.336C67.6334 10.768 69.1214 12.112 71.1854 12.112C72.2894 12.112 73.2654 11.632 73.8254 10.88V12H76.0814V3.136ZM84.4995 12H86.7395V6.8C86.7395 4.352 85.2675 3.008 83.2035 3.008C82.0675 3.008 81.1075 3.488 80.5315 4.24V3.136H78.2915V12H80.5315V7.104C80.5315 5.68 81.3155 4.912 82.5315 4.912C83.7155 4.912 84.4995 5.68 84.4995 7.104V12ZM88.2936 7.536C88.2936 10.304 90.0856 12.144 92.3416 12.144C93.7336 12.144 94.7256 11.504 95.2536 10.688V12H97.5256V0.16H95.2536V4.368C94.6456 3.536 93.5256 2.992 92.3576 2.992C90.0856 2.992 88.2936 4.768 88.2936 7.536ZM95.2696 7.568C95.2696 9.248 94.1496 10.176 92.9176 10.176C91.7176 10.176 90.5816 9.216 90.5816 7.536C90.5816 5.856 91.7176 4.96 92.9176 4.96C94.1496 4.96 95.2696 5.888 95.2696 7.568Z" fill="#002169"/>
</svg>
