<svg width="65" height="13" viewBox="0 0 65 13" fill="none" xmlns="http://www.w3.org/2000/svg">
<path d="M6.584 0.815999H0.104V12H6.584V10.176H2.344V7.216H6.104V5.44H2.344V2.64H6.584V0.815999ZM8.61963 12H10.8596V0.16H8.61963V12ZM16.8808 4.832C18.0328 4.832 18.9608 5.568 18.9928 6.736H14.7848C14.9608 5.52 15.8088 4.832 16.8808 4.832ZM21.0888 9.216H18.6728C18.3848 9.808 17.8568 10.288 16.8968 10.288C15.7768 10.288 14.8808 9.552 14.7688 8.24H21.2488C21.2968 7.952 21.3128 7.664 21.3128 7.376C21.3128 4.736 19.5048 2.992 16.9448 2.992C14.3207 2.992 12.4967 4.768 12.4967 7.568C12.4967 10.352 14.3688 12.144 16.9448 12.144C19.1368 12.144 20.6088 10.848 21.0888 9.216ZM35.3478 12H37.5878V6.8C37.5878 4.352 36.0838 3.008 33.9558 3.008C32.6598 3.008 31.4918 3.696 30.9158 4.704C30.3078 3.6 29.1718 3.008 27.7958 3.008C26.6918 3.008 25.7478 3.472 25.1878 4.208V3.136H22.9478V12H25.1878V7.104C25.1878 5.696 25.9718 4.96 27.1878 4.96C28.3718 4.96 29.1558 5.696 29.1558 7.104V12H31.3958V7.104C31.3958 5.696 32.1798 4.96 33.3798 4.96C34.5638 4.96 35.3478 5.696 35.3478 7.104V12ZM43.5214 4.832C44.6734 4.832 45.6014 5.568 45.6334 6.736H41.4254C41.6014 5.52 42.4494 4.832 43.5214 4.832ZM47.7294 9.216H45.3134C45.0254 9.808 44.4974 10.288 43.5374 10.288C42.4174 10.288 41.5214 9.552 41.4094 8.24H47.8894C47.9374 7.952 47.9534 7.664 47.9534 7.376C47.9534 4.736 46.1454 2.992 43.5854 2.992C40.9614 2.992 39.1374 4.768 39.1374 7.568C39.1374 10.352 41.0094 12.144 43.5854 12.144C45.7774 12.144 47.2494 10.848 47.7294 9.216ZM55.7964 12H58.0364V6.8C58.0364 4.352 56.5644 3.008 54.5004 3.008C53.3644 3.008 52.4044 3.488 51.8284 4.24V3.136H49.5884V12H51.8284V7.104C51.8284 5.68 52.6124 4.912 53.8284 4.912C55.0124 4.912 55.7964 5.68 55.7964 7.104V12ZM60.5185 9.248C60.5185 11.28 61.6545 12 63.3505 12H64.7585V10.112H63.7185C63.0145 10.112 62.7745 9.856 62.7745 9.264V4.976H64.7585V3.136H62.7745V0.943999H60.5185V3.136H59.4625V4.976H60.5185V9.248Z" fill="#002169"/>
</svg>
